<?xml version="1.0" standalone="no"?>
<!DOCTYPE svg PUBLIC "-//W3C//DTD SVG 20010904//EN"
 "http://www.w3.org/TR/2001/REC-SVG-20010904/DTD/svg10.dtd">
<svg version="1.0" xmlns="http://www.w3.org/2000/svg"
 width="300.000000pt" height="565.000000pt" viewBox="0 0 300.000000 565.000000"
 preserveAspectRatio="xMidYMid meet">
<metadata>
Created by potrace 1.10, written by Peter Selinger 2001-2011
</metadata>
<g transform="translate(0.000000,565.000000) scale(0.100000,-0.100000)"
fill="#000000" stroke="none">
<path d="M1090 5535 c0 -9 7 -18 15 -21 8 -4 15 -15 15 -25 0 -10 14 -34 30
-52 35 -40 37 -47 11 -47 -12 0 -23 11 -30 30 -5 17 -15 30 -20 30 -14 0 -14
-27 -1 -35 6 -3 10 -14 10 -24 0 -10 9 -21 20 -24 13 -3 20 -14 20 -28 0 -12
6 -30 14 -38 14 -16 19 -34 17 -59 -2 -25 -21 -1 -21 27 0 20 -8 34 -26 46
-14 9 -30 30 -36 46 -5 16 -14 27 -19 24 -4 -3 -4 -17 1 -31 13 -32 13 -34 -3
-34 -7 0 -18 14 -25 32 -9 25 -15 29 -23 21 -9 -9 -9 -16 1 -29 12 -14 12 -17
-3 -25 -9 -6 -17 -19 -17 -29 0 -11 -4 -20 -10 -20 -13 0 -13 61 0 96 18 45
-4 47 -40 3 -32 -40 -32 -43 -20 -77 10 -30 10 -37 -2 -46 -8 -6 -22 -22 -31
-36 -14 -20 -17 -21 -17 -7 0 14 -5 17 -20 12 -17 -5 -21 -1 -26 25 -7 33 -40
58 -55 43 -13 -13 17 -70 41 -76 23 -6 27 -27 5 -27 -9 0 -15 -9 -15 -24 0
-14 -4 -28 -10 -31 -5 -3 -10 -13 -10 -21 0 -8 5 -14 10 -14 6 0 10 6 10 14 0
8 5 18 12 22 8 5 9 -1 5 -22 -7 -35 22 -77 47 -68 22 8 20 25 -4 31 -11 3 -20
13 -20 23 0 10 -3 25 -6 34 -4 11 -1 16 10 16 9 0 19 -8 22 -17 3 -10 10 -26
15 -35 5 -10 9 -24 9 -31 0 -22 44 -57 71 -57 25 0 69 32 69 50 0 16 -16 11
-35 -10 -19 -21 -55 -27 -55 -10 0 6 8 10 18 10 20 0 52 29 52 47 0 6 9 9 21
6 14 -4 27 0 35 12 12 16 15 15 38 -11 l24 -29 34 20 c18 10 40 28 50 39 15
20 17 20 35 3 38 -34 84 -13 98 46 10 38 -13 36 -26 -3 -12 -32 -35 -38 -70
-20 -27 15 -25 50 4 50 17 0 19 -2 7 -10 -11 -7 -12 -12 -3 -21 13 -13 33 -4
33 16 0 8 7 18 15 22 11 7 14 18 9 41 -7 33 -22 40 -41 21 -7 -7 -13 -8 -17 0
-4 6 2 19 14 31 11 11 20 26 20 34 0 24 -12 46 -21 41 -4 -3 -6 -12 -3 -20 3
-7 1 -22 -4 -31 -13 -24 -100 -30 -109 -8 -3 9 0 20 7 24 11 7 12 16 2 46 -6
21 -10 40 -7 42 9 9 25 -11 33 -41 9 -36 42 -51 42 -18 0 11 -4 22 -9 25 -19
12 -22 58 -5 77 13 15 15 22 6 31 -8 8 -15 1 -28 -26 -10 -20 -21 -36 -26 -36
-15 0 -48 40 -48 58 0 21 -29 52 -48 52 -7 0 -12 -7 -12 -15z m61 -279 c10
-60 57 -87 79 -45 13 24 4 41 -10 19 -15 -25 -18 -6 -4 28 16 37 35 41 49 10
6 -13 19 -23 29 -23 11 0 21 -6 24 -13 2 -8 -7 -12 -25 -12 -34 0 -53 -16 -53
-44 0 -12 -13 -30 -30 -41 -16 -11 -30 -23 -30 -27 0 -5 -4 -8 -10 -8 -5 0
-10 9 -10 20 0 25 -28 70 -43 70 -6 0 -19 -8 -30 -17 -19 -18 -20 -17 -13 22
4 22 4 37 0 33 -12 -12 -34 13 -34 38 0 29 15 31 30 4 15 -29 32 -25 24 6 -6
23 -4 25 22 22 25 -3 30 -8 35 -42z m-161 0 c0 -8 -11 -28 -25 -44 -14 -17
-25 -37 -25 -45 0 -8 -7 -18 -16 -21 -19 -7 -44 10 -44 31 0 12 3 13 15 3 15
-12 35 -6 35 12 0 8 49 75 58 77 1 1 2 -5 2 -13z m49 -46 c5 0 11 -15 13 -32
2 -23 8 -33 20 -33 29 0 32 -14 4 -25 -15 -5 -29 -10 -30 -10 -6 0 -25 54 -29
80 l-3 25 -8 -28 c-6 -19 -4 -37 5 -53 17 -32 2 -79 -26 -79 -11 -1 -26 -4
-33 -8 -8 -6 -12 -1 -12 17 0 28 9 33 28 14 9 -9 12 -8 12 5 0 9 -4 17 -9 17
-15 0 -22 32 -10 46 6 8 9 20 6 28 -3 8 6 28 21 44 25 27 28 28 34 11 4 -10
12 -19 17 -19z"/>
<path d="M1375 5490 c-9 -15 35 -122 59 -142 32 -26 11 -32 -23 -7 -17 13 -31
31 -31 42 0 11 -13 34 -29 52 -16 18 -31 39 -34 47 -3 10 -7 10 -17 1 -10 -9
-8 -20 9 -53 11 -22 21 -49 21 -59 0 -19 50 -90 64 -91 4 0 5 11 2 25 -11 44
19 25 52 -33 14 -26 6 -69 -15 -81 -13 -7 -10 -11 13 -26 17 -9 37 -29 46 -45
35 -61 128 -44 128 23 0 18 -7 42 -15 53 -20 27 -19 31 13 46 33 16 41 58 18
93 -9 13 -16 30 -16 38 0 13 -50 67 -63 67 -11 0 -8 -58 3 -65 6 -3 10 -13 10
-22 0 -9 7 -24 16 -34 14 -16 14 -20 0 -48 -12 -22 -13 -37 -6 -55 16 -42 -15
-99 -35 -66 -3 6 1 10 9 10 9 0 16 8 16 18 0 22 -17 48 -26 39 -4 -3 -1 -14 7
-23 12 -14 11 -16 -5 -13 -21 4 -44 34 -34 44 3 4 14 8 25 9 10 2 17 10 15 18
-1 9 4 21 13 28 11 9 12 17 4 31 -13 25 -35 24 -42 -2 -10 -36 -30 -11 -22 28
5 29 2 37 -24 61 -17 14 -31 30 -31 35 0 8 -58 67 -65 67 -2 0 -7 -5 -10 -10z
m64 -77 c7 -15 21 -33 32 -41 12 -9 19 -25 19 -47 0 -24 6 -39 20 -47 25 -16
26 -28 2 -28 -24 0 -68 45 -53 55 18 11 12 38 -13 60 -24 20 -44 75 -28 75 5
0 14 -12 21 -27z m-79 -33 c0 -10 5 -22 10 -25 6 -3 10 -11 10 -18 0 -20 -28
17 -36 47 -5 21 -4 27 5 22 6 -4 11 -16 11 -26z m256 -44 c15 -30 19 -48 12
-60 -14 -25 -29 -19 -22 9 3 14 2 31 -3 38 -13 16 -23 57 -15 57 4 0 17 -20
28 -44z m-119 -132 c8 -20 -13 -42 -27 -28 -12 12 -3 44 11 44 5 0 12 -7 16
-16z m26 -54 c6 -25 45 -27 63 -3 7 10 15 15 19 11 10 -9 -12 -45 -32 -52 -20
-8 -66 23 -71 48 -5 23 15 20 21 -4z"/>
<path d="M1686 5333 c-9 -9 -8 -57 2 -68 4 -6 5 -28 2 -50 -5 -38 -6 -39 -13
-12 -5 18 -14 27 -27 27 -21 0 -27 -15 -10 -25 6 -3 10 -28 10 -55 0 -38 6
-55 25 -77 14 -15 29 -34 35 -40 24 -28 90 -2 90 35 0 26 26 10 35 -20 6 -18
18 -34 28 -36 21 -4 23 21 2 38 -24 20 -17 32 15 25 29 -6 30 -6 24 27 -10 52
-46 127 -64 133 -10 3 -25 26 -35 50 -9 25 -23 45 -31 45 -19 0 -18 -13 5 -56
11 -20 17 -42 15 -49 -4 -9 1 -12 14 -8 24 6 62 -43 62 -80 0 -31 -26 -55 -42
-39 -8 8 -7 13 5 18 9 3 15 10 12 14 -6 10 -45 1 -45 -11 0 -5 -7 -9 -15 -9
-18 0 -20 -17 -2 -23 18 -6 -10 -37 -34 -37 -27 0 -78 60 -79 90 0 24 1 24 20
-8 13 -21 27 -32 38 -30 26 5 26 45 0 77 -19 22 -23 36 -20 69 4 45 22 48 22
4 0 -16 14 -43 34 -67 29 -34 36 -38 50 -26 21 18 20 34 -2 27 -22 -7 -62 42
-62 76 0 24 -53 82 -64 71z m44 -200 c0 -24 -25 -9 -28 17 -3 21 -2 22 12 11
9 -7 16 -20 16 -28z"/>
<path d="M1397 5241 c-16 -16 -16 -19 -2 -31 9 -7 16 -11 18 -9 18 31 27 50
27 54 0 11 -26 3 -43 -14z"/>
<path d="M1890 5207 c0 -7 7 -22 15 -33 8 -10 15 -30 15 -44 0 -31 7 -41 45
-62 34 -19 62 -10 52 16 -11 27 13 18 25 -10 11 -24 10 -29 -15 -48 -15 -12
-27 -29 -27 -37 0 -22 -21 -39 -47 -39 -37 0 -60 64 -27 77 25 10 41 -14 19
-30 -20 -16 -7 -31 19 -21 19 7 21 45 4 62 -36 36 -101 -17 -79 -64 16 -36 59
-60 82 -46 27 17 32 15 25 -12 -4 -15 0 -28 9 -36 10 -8 15 -31 15 -65 0 -45
3 -53 24 -63 18 -8 30 -7 52 4 15 8 35 13 44 12 20 -4 80 45 80 65 0 18 -24
39 -33 30 -4 -3 -7 -17 -7 -29 0 -28 -19 -42 -31 -23 -7 12 -9 11 -9 -1 0 -9
-16 -22 -35 -29 -48 -17 -65 -3 -64 53 l0 41 12 -35 c11 -31 16 -35 42 -32 31
4 50 23 60 61 8 29 -10 50 -27 33 -18 -18 -56 -14 -88 10 -33 24 -38 38 -15
38 8 0 22 -11 31 -25 20 -31 40 -32 55 -4 8 15 8 24 0 32 -7 7 -13 3 -20 -14
-8 -21 -10 -22 -16 -7 -10 25 -2 41 21 44 10 1 29 6 42 9 16 6 22 3 22 -9 0
-17 15 -22 24 -8 6 9 -2 22 -27 41 -15 12 -19 12 -32 -5 -14 -18 -14 -18 -15
8 0 15 -5 30 -11 34 -7 4 -9 24 -5 56 5 39 4 49 -6 46 -7 -3 -15 -18 -18 -34
l-5 -28 -23 29 c-13 16 -22 41 -21 55 0 14 1 32 0 40 -2 27 -28 -12 -35 -52
-6 -31 -4 -37 9 -32 18 7 19 0 5 -27 -10 -18 -12 -18 -35 -3 -18 12 -25 26
-25 48 -1 17 -9 41 -19 54 -22 25 -31 28 -31 9z m194 -173 c3 -9 6 -20 6 -25
0 -13 -59 -41 -71 -34 -14 9 9 35 26 29 16 -7 29 12 15 21 -11 7 -4 25 10 25
4 0 11 -7 14 -16z m46 -173 c0 -10 -8 -21 -17 -25 -10 -3 -24 -9 -30 -12 -9
-4 -13 3 -13 19 0 24 3 27 53 36 4 0 7 -7 7 -18z"/>
<path d="M750 5117 c0 -13 -7 -32 -15 -43 -20 -27 -19 -50 6 -83 12 -17 19
-38 17 -52 -4 -23 -6 -22 -21 11 -9 20 -16 28 -17 18 0 -33 -30 -20 -30 13 0
37 -25 35 -26 -3 -1 -14 -4 -30 -8 -37 -12 -18 31 -68 64 -74 19 -4 30 -13 30
-23 0 -12 -6 -15 -24 -10 -21 5 -25 2 -28 -21 -4 -35 -26 -41 -34 -9 -6 27
-23 36 -25 14 -7 -80 36 -105 72 -43 12 19 27 35 35 35 7 0 17 12 20 27 7 28
-14 53 -46 53 -9 0 -21 5 -28 12 -39 39 28 29 71 -10 15 -14 27 -35 27 -46 0
-11 -12 -33 -27 -49 l-28 -29 24 4 c15 2 32 16 44 35 17 29 17 34 3 62 -20 38
-20 41 3 41 10 0 22 7 25 15 3 9 14 15 23 13 11 -2 22 6 28 19 5 12 17 24 27
26 10 3 18 14 18 25 0 28 -17 36 -23 12 -6 -25 -45 -27 -54 -2 -3 9 -14 25
-25 35 -17 17 -18 17 -18 -3 0 -22 -15 -27 -23 -7 -3 7 -3 25 0 40 5 26 -10
57 -28 57 -5 0 -9 -10 -9 -23z m20 -66 c0 -23 26 -45 54 -46 30 0 29 -40 -1
-40 -12 0 -25 -4 -29 -8 -4 -4 -2 -7 4 -7 7 0 12 -7 12 -16 0 -30 -25 -7 -28
26 -2 18 -10 39 -18 47 -16 16 -19 63 -4 63 6 0 10 -8 10 -19z"/>
<path d="M2152 5068 c-7 -7 -12 -18 -12 -25 0 -18 29 -16 37 3 8 21 -10 37
-25 22z"/>
<path d="M1800 5014 c0 -26 40 -74 61 -74 26 0 24 7 -11 37 -16 13 -30 31 -30
39 0 8 -4 14 -10 14 -5 0 -10 -7 -10 -16z"/>
<path d="M525 4980 c-3 -5 -1 -17 4 -27 38 -71 48 -106 44 -146 -4 -34 0 -49
21 -80 15 -21 24 -42 21 -46 -2 -5 4 -16 15 -26 21 -19 27 -55 10 -55 -5 0
-10 7 -10 15 0 8 -5 15 -11 15 -6 0 -9 -7 -5 -15 3 -9 -1 -15 -11 -15 -13 0
-14 7 -9 39 4 29 1 44 -13 62 -10 13 -21 40 -25 60 -4 21 -13 42 -21 49 -15
13 -19 -6 -19 -90 0 -14 -6 -31 -13 -38 -8 -8 -11 -23 -7 -38 4 -14 2 -24 -5
-24 -6 0 -11 9 -11 21 0 23 -18 21 -34 -4 -8 -12 -5 -22 13 -41 l23 -24 -22
-30 c-31 -42 -22 -78 22 -87 52 -10 91 -27 121 -52 16 -13 37 -23 47 -23 12 0
20 -10 24 -31 3 -17 15 -43 26 -59 11 -15 20 -32 20 -37 0 -16 94 -102 123
-112 16 -6 42 -11 58 -11 16 0 29 -5 29 -11 0 -17 -82 -4 -129 21 -23 11 -42
16 -46 10 -7 -11 21 -27 83 -46 94 -28 122 -16 122 53 0 51 13 82 45 106 30
22 85 34 85 18 0 -6 -8 -11 -19 -11 -10 0 -30 -11 -44 -24 -23 -22 -26 -31
-24 -75 3 -37 10 -58 28 -77 22 -24 29 -26 82 -20 34 3 70 14 87 26 35 25 50
25 50 1 0 -21 -44 -45 -102 -56 -54 -10 -48 -28 6 -20 51 8 86 0 86 -21 0 -8
-4 -14 -10 -14 -5 0 -10 -4 -10 -10 0 -5 7 -10 15 -10 8 0 15 -4 15 -10 0 -5
-7 -10 -15 -10 -8 0 -15 -4 -15 -10 0 -5 -5 -10 -11 -10 -5 0 -8 4 -4 9 6 11
-11 17 -80 26 -27 4 -58 11 -67 16 -9 5 -42 12 -73 15 -50 6 -59 4 -93 -22
-20 -15 -40 -34 -45 -40 -21 -35 -57 -57 -57 -35 0 16 108 121 135 131 43 16
14 37 -63 45 -37 3 -84 11 -105 16 -33 9 -36 13 -31 34 3 14 3 33 -1 42 -6 17
-7 17 -16 1 -17 -30 -36 -20 -76 36 -40 59 -69 80 -121 89 -66 13 -138 -42
-145 -112 -6 -47 -17 -50 -17 -4 0 22 7 54 15 69 13 26 13 30 0 40 -14 10 -11
15 17 32 18 11 50 28 72 37 38 18 39 18 83 -6 50 -27 130 -111 139 -146 7 -27
24 -31 24 -5 0 69 -134 192 -210 192 -14 0 -31 5 -38 12 -8 8 -15 8 -26 -1 -7
-6 -18 -11 -22 -10 -5 2 -28 -3 -51 -9 -54 -16 -118 -88 -127 -143 -10 -64
-39 -42 -52 40 -6 34 -3 46 20 75 41 54 108 85 191 90 6 1 10 8 10 16 0 8 -5
14 -10 13 -6 0 -28 -4 -50 -7 -78 -13 -162 -70 -186 -128 -9 -23 -9 -40 1 -82
11 -47 11 -57 -4 -77 -23 -34 -20 -99 7 -140 26 -39 86 -75 138 -84 24 -4 49
-20 75 -46 34 -35 37 -42 26 -59 -26 -43 -9 -113 40 -156 39 -35 169 -100 241
-120 37 -10 67 -24 67 -31 0 -7 -4 -13 -10 -13 -5 0 -9 -10 -7 -22 2 -24 -36
-49 -79 -52 -13 0 -24 -4 -24 -8 0 -12 -88 -10 -95 2 -10 16 -41 12 -77 -9
-34 -20 -127 -41 -209 -46 -75 -5 -159 -55 -159 -94 0 -5 21 -16 46 -26 56
-21 142 -16 218 13 39 15 57 17 92 10 38 -8 55 -5 126 21 98 37 222 51 231 26
8 -19 -10 -30 -27 -16 -9 8 -18 7 -31 -3 -17 -12 -17 -14 4 -28 12 -9 18 -17
12 -19 -8 -3 -9 -19 -2 -52 10 -54 1 -66 -32 -45 -34 21 -135 22 -198 2 -84
-27 -189 -112 -189 -153 0 -6 16 -11 35 -11 25 0 35 4 35 16 0 11 -6 14 -20 9
-33 -10 -22 8 30 50 93 76 212 97 270 49 39 -33 32 -42 -16 -19 -26 12 -51 16
-88 12 -50 -5 -126 -40 -126 -58 0 -15 19 -10 49 12 32 24 151 40 151 20 0 -7
-19 -11 -50 -11 -51 0 -110 -22 -110 -40 0 -14 5 -13 48 10 22 12 38 16 40 10
6 -16 -19 -42 -35 -36 -7 3 -13 -1 -13 -9 0 -8 5 -15 10 -15 6 0 10 -10 10
-22 -1 -21 -2 -22 -14 -5 -16 21 -26 22 -26 2 0 -8 -4 -15 -10 -15 -5 0 -10 5
-10 10 0 6 -5 10 -11 10 -6 0 -8 -8 -5 -17 4 -13 -5 -23 -34 -36 -42 -19 -54
-47 -21 -47 11 0 21 -5 23 -11 3 -8 15 -6 38 6 37 19 113 25 142 11 14 -6 18
-4 18 12 0 24 -31 53 -37 35 -3 -8 -23 -13 -54 -13 -27 0 -49 -4 -49 -10 0
-13 -37 -13 -45 -1 -5 9 27 22 87 35 20 5 29 14 33 34 11 49 32 77 65 83 48
10 82 -4 108 -42 38 -56 74 -99 83 -99 18 0 8 32 -11 37 -11 3 -20 12 -20 19
0 15 -59 104 -99 147 -31 34 -8 38 35 5 41 -32 52 -46 79 -103 12 -28 30 -57
39 -64 11 -9 14 -21 9 -39 -15 -63 36 20 76 122 21 53 23 19 2 -49 -21 -73
-112 -231 -160 -282 -17 -18 -31 -37 -31 -43 0 -18 12 -9 61 45 69 76 123 178
148 280 65 261 74 287 112 320 17 13 27 29 24 35 -7 11 -4 12 74 16 l55 3 -30
-24 c-34 -28 -46 -31 -38 -10 4 10 0 15 -15 15 -19 0 -20 -3 -11 -21 7 -11 10
-22 8 -23 -2 -1 -17 -12 -34 -24 -40 -28 -84 -119 -95 -199 -5 -34 -18 -86
-29 -115 -22 -58 -24 -68 -12 -68 17 0 43 67 57 152 16 90 40 166 50 156 7 -6
7 -281 1 -323 -9 -61 -50 -150 -89 -192 -22 -23 -89 -73 -151 -110 -182 -112
-281 -220 -306 -337 -9 -40 -9 -40 -6 14 5 102 98 253 192 311 19 11 34 27 34
35 0 7 6 11 14 8 16 -6 31 12 17 20 -15 9 -90 -46 -152 -111 -65 -68 -96 -122
-119 -212 -14 -52 -18 -59 -23 -40 -22 81 1 137 94 234 43 45 79 85 79 89 0 3
-8 6 -19 6 -19 0 -67 -49 -108 -111 -28 -41 -30 -22 -4 30 19 36 49 66 144
144 26 21 47 45 47 52 0 23 -11 18 -53 -22 -34 -34 -39 -36 -48 -20 -6 9 -15
15 -20 11 -6 -4 -6 -11 1 -20 24 -28 5 -36 -95 -38 -90 -2 -106 -6 -162 -34
-48 -25 -71 -44 -98 -84 -35 -53 -43 -78 -25 -78 6 0 10 6 10 14 0 24 81 106
129 130 66 34 111 42 111 21 0 -12 -6 -15 -20 -10 -15 5 -20 2 -20 -11 0 -13
-3 -14 -15 -4 -23 19 -107 -40 -145 -101 -33 -54 -35 -59 -20 -59 6 0 15 11
20 25 12 31 104 125 122 125 7 0 -5 -17 -28 -37 -23 -21 -50 -56 -62 -79 -11
-23 -33 -49 -47 -58 -22 -15 -25 -22 -19 -51 4 -21 2 -35 -4 -35 -15 0 -24 46
-16 86 4 22 2 34 -5 34 -26 0 -26 -105 0 -136 6 -8 22 -14 35 -14 16 0 28 -8
35 -24 14 -31 4 -76 -17 -76 -9 0 -14 -6 -11 -12 2 -7 14 -13 27 -13 19 0 23
6 27 39 2 21 5 41 5 45 1 3 -1 27 -6 54 -7 46 -26 66 -26 27 0 -11 -4 -20 -10
-20 -13 0 -13 77 0 85 5 3 10 -1 10 -9 0 -9 4 -16 10 -16 13 0 32 38 27 53 -2
7 4 29 15 49 19 39 67 77 128 101 31 12 42 13 66 8 4 0 0 -11 -9 -24 -13 -21
-29 -70 -58 -180 -11 -46 1 -103 31 -135 11 -11 20 -29 20 -38 0 -9 9 -31 19
-48 l20 -31 -34 -34 c-40 -39 -80 -118 -90 -178 -4 -24 -11 -45 -16 -48 -4 -3
-20 -42 -34 -86 -25 -81 -34 -179 -15 -179 16 0 12 -46 -5 -60 -15 -13 -21
-40 -8 -40 4 0 16 9 28 20 12 11 41 31 65 43 24 12 43 26 43 32 -1 16 -29 29
-49 20 -13 -5 -15 -9 -6 -12 19 -7 14 -19 -14 -32 -26 -11 -26 -11 -20 16 13
51 92 116 181 148 48 17 91 40 107 57 23 25 58 38 58 22 0 -4 -13 -22 -30 -41
-55 -62 -31 -112 46 -92 46 11 144 61 144 72 0 5 -9 5 -20 2 -28 -9 -25 9 5
25 14 7 25 17 25 22 0 19 38 7 43 -14 12 -45 -83 -111 -218 -153 -49 -15 -98
-31 -107 -36 -10 -5 -25 -9 -34 -9 -9 0 -30 -6 -47 -14 -18 -8 -61 -28 -97
-44 -36 -16 -82 -43 -101 -60 -25 -22 -39 -28 -46 -21 -8 8 -17 -11 -33 -63
-12 -40 -26 -83 -32 -95 -15 -30 -5 -109 21 -169 38 -86 155 -154 268 -154 32
0 43 -4 43 -16 0 -19 68 -121 160 -239 75 -96 80 -112 57 -189 -20 -64 -33
-54 -40 27 -8 107 -22 128 -114 173 -68 33 -87 39 -149 39 -95 0 -170 -33
-180 -79 -3 -17 -14 -42 -24 -56 -9 -14 -25 -45 -34 -70 -16 -43 -16 -49 -1
-95 10 -28 24 -58 32 -67 25 -28 103 -59 159 -63 36 -3 65 -12 85 -27 26 -20
42 -23 115 -22 46 0 84 -3 84 -7 0 -19 54 -69 87 -80 31 -10 41 -9 70 6 44 24
77 9 99 -44 17 -42 50 -71 83 -71 11 0 33 16 49 36 27 32 33 35 65 29 20 -4
40 -4 46 -1 17 11 0 36 -25 36 -12 0 -27 8 -33 18 -9 16 -11 16 -39 0 -27 -16
-33 -17 -66 -3 -31 13 -36 20 -36 49 0 36 -12 46 -56 46 -27 0 -85 26 -96 43
-4 6 -1 20 5 31 16 29 36 105 37 139 0 15 -11 53 -24 85 -15 38 -22 69 -19 93
4 32 -2 48 -46 112 -28 41 -58 91 -66 111 -13 30 -19 35 -30 26 -10 -8 -14 -8
-18 2 -2 7 -7 10 -11 6 -10 -9 47 -114 75 -138 15 -13 42 -70 36 -76 -4 -4 -8
-5 -10 -3 -55 72 -112 160 -123 188 -8 20 -19 44 -24 53 -7 12 -6 19 2 24 7 4
14 2 16 -4 6 -18 22 -14 22 6 0 12 20 27 65 47 36 16 71 35 77 42 17 21 28 15
28 -18 0 -41 14 -64 57 -93 27 -19 41 -23 54 -15 21 11 24 6 33 -41 8 -46 5
-54 -21 -55 -21 -1 -94 -66 -93 -83 1 -12 70 -52 91 -52 10 0 19 -1 19 -3 0
-1 -13 -38 -30 -80 -35 -91 -36 -105 -12 -114 9 -4 37 -29 62 -57 25 -28 64
-70 88 -93 39 -38 49 -43 91 -43 26 0 50 3 54 6 3 4 24 8 47 9 49 4 87 27 103
62 10 23 8 28 -17 48 -17 13 -26 28 -21 34 9 15 -54 109 -78 117 -14 4 -17 11
-11 27 11 33 12 138 2 175 -5 17 -16 32 -24 32 -17 0 -17 -10 1 130 20 158 25
174 58 178 l26 3 -5 -63 c-2 -35 -9 -88 -15 -118 -24 -128 -22 -190 6 -290 34
-118 38 -127 87 -172 47 -44 133 -73 246 -82 91 -8 142 -28 142 -55 0 -24 -44
-71 -67 -71 -14 0 -14 3 -5 12 10 10 -1 18 -55 36 -109 38 -142 39 -180 3 -36
-33 -41 -57 -18 -100 18 -35 63 -57 138 -66 53 -6 58 -9 53 -27 -11 -44 23
-69 68 -52 23 9 10 23 -15 17 -23 -6 -40 12 -32 33 4 11 9 11 26 -1 12 -8 29
-15 39 -15 10 0 18 -5 18 -11 0 -7 9 -9 21 -6 12 3 29 1 39 -5 12 -8 28 -8 50
-2 36 10 41 29 8 30 -13 1 -40 13 -62 27 -39 27 -67 27 -45 1 9 -11 7 -14 -15
-14 -20 0 -27 6 -32 28 -9 36 -22 43 -65 36 -43 -7 -94 16 -104 47 -12 38 9
38 80 4 85 -42 136 -45 170 -11 31 31 40 81 22 131 -19 53 -49 73 -143 94 -90
20 -164 55 -164 76 0 8 -19 27 -42 41 -62 39 -96 82 -113 142 -15 49 -15 61
-1 122 9 37 20 78 25 91 11 29 13 24 35 -85 21 -99 41 -143 75 -161 15 -7 33
-25 41 -39 7 -14 16 -26 19 -26 4 0 30 -18 60 -40 37 -28 83 -49 154 -71 56
-18 111 -40 123 -51 11 -10 26 -18 32 -18 24 0 89 -70 102 -110 7 -22 19 -40
26 -40 6 0 14 -7 18 -15 10 -28 26 -15 26 21 0 78 -72 162 -183 214 -34 16
-106 57 -159 92 -53 35 -111 72 -129 83 -31 20 -61 81 -119 240 -25 69 -40
158 -29 170 5 5 9 17 9 27 0 12 14 24 40 34 45 18 100 75 100 104 0 10 5 22
10 25 30 19 -7 -78 -55 -144 -21 -29 -23 -35 -10 -45 10 -8 12 -15 5 -26 -6
-10 -10 -11 -10 -2 0 6 -5 12 -11 12 -17 0 11 -135 42 -205 34 -77 105 -134
166 -135 19 0 22 -4 17 -27 -3 -16 -1 -40 4 -54 9 -22 18 -27 59 -32 26 -3 49
-1 51 4 2 5 13 9 25 9 20 0 20 -1 2 -13 -16 -13 -14 -14 22 -19 22 -3 55 -13
74 -22 73 -33 226 -50 216 -23 -2 6 -16 11 -31 9 -32 -3 -35 13 -3 22 37 10
57 7 57 -9 0 -8 4 -15 10 -15 17 0 60 51 60 72 0 30 -85 106 -167 150 -37 20
-69 41 -71 46 -3 10 180 154 187 147 2 -3 -4 -22 -13 -45 -18 -46 -21 -106 -6
-144 18 -49 28 -27 23 52 -6 84 4 118 46 156 30 27 34 16 10 -32 -51 -101 27
-212 148 -212 46 0 97 25 113 55 7 14 17 25 22 25 24 0 -16 -65 -57 -90 -39
-24 -93 -24 -153 1 -30 13 -35 12 -46 -4 -16 -21 -42 -22 -50 -2 -7 19 -26 20
-26 2 0 -26 36 -47 78 -47 33 0 50 -7 79 -33 52 -45 111 -62 155 -43 78 33
144 142 132 218 -11 65 -28 99 -81 158 -49 54 -93 80 -138 80 -28 0 -34 15 -9
24 27 10 48 7 97 -18 90 -46 218 -27 260 38 33 50 9 80 -56 69 -33 -5 -37 -3
-43 21 -7 29 2 74 18 93 6 7 22 13 37 13 29 0 51 16 51 37 0 18 -27 16 -34 -2
-3 -8 -16 -15 -29 -15 -55 0 -95 -86 -63 -135 15 -23 15 -25 -3 -35 -36 -19
-76 -12 -106 20 -30 32 -59 37 -138 24 -27 -5 -35 -10 -27 -19 7 -9 22 -9 61
-1 49 10 52 9 73 -17 46 -58 66 -85 66 -91 0 -13 -37 10 -66 41 -25 26 -39 33
-70 33 -23 0 -49 -8 -64 -20 -14 -11 -36 -20 -49 -20 -22 0 -23 1 -7 24 21 32
3 43 -21 13 -22 -28 -86 -59 -116 -57 -46 4 -77 0 -77 -11 0 -7 10 -9 24 -5
14 3 28 2 31 -4 3 -5 1 -10 -5 -10 -6 0 -8 -4 -5 -10 4 -6 25 0 53 15 48 26
142 35 142 15 0 -5 -15 -10 -34 -10 -41 0 -68 -9 -61 -21 3 -4 17 -4 31 1 31
12 137 13 130 1 -3 -4 -34 -10 -68 -13 -81 -7 -186 -49 -259 -104 -54 -42 -79
-53 -79 -36 1 13 151 112 191 125 21 6 39 15 39 19 0 23 -84 -13 -153 -66 -26
-20 -51 -36 -56 -36 -5 0 -14 -6 -20 -14 -7 -8 -22 -12 -34 -9 -21 4 -21 3 4
-20 18 -16 24 -29 19 -37 -7 -11 -11 -11 -25 0 -13 11 -22 11 -51 1 -20 -7
-37 -11 -39 -9 -2 1 -1 16 2 31 4 21 10 26 23 22 26 -8 37 15 32 63 -4 36 -7
42 -23 37 -25 -8 -24 7 0 29 16 14 19 30 18 83 0 60 2 68 27 90 24 20 28 30
23 57 -4 28 -2 34 18 42 30 11 165 162 165 184 0 9 -9 22 -20 30 -28 20 -26
27 25 72 25 22 45 46 45 53 0 16 30 34 46 28 6 -2 24 9 40 23 36 34 17 44 -25
13 -17 -13 -36 -19 -46 -15 -21 8 -14 30 11 35 42 7 88 81 66 103 -8 8 -14 3
-22 -18 -6 -16 -19 -37 -27 -46 -20 -22 -53 -24 -53 -3 0 24 -47 19 -61 -7
-10 -18 -9 -20 5 -15 19 8 19 11 0 -46 -9 -26 -22 -47 -29 -47 -14 0 -27 -24
-29 -51 -2 -24 -103 -112 -121 -105 -8 3 -15 10 -15 16 0 5 -5 10 -11 10 -6 0
-9 -7 -6 -15 4 -8 1 -17 -5 -21 -6 -4 -8 -23 -5 -45 4 -33 2 -38 -17 -41 -17
-2 -20 -9 -18 -31 2 -15 -2 -34 -8 -42 -8 -10 -9 -19 0 -35 13 -24 10 -85 -4
-85 -5 0 -13 12 -17 27 -4 15 -17 41 -30 59 -20 28 -21 32 -6 41 9 5 21 17 27
27 8 16 7 18 -10 14 -11 -3 -20 0 -20 6 0 6 -6 11 -13 11 -16 0 -21 -88 -5
-107 9 -11 5 -20 -17 -43 -16 -17 -33 -30 -39 -30 -12 0 -133 -76 -163 -104
-29 -25 -29 -17 2 43 22 44 44 73 135 179 16 18 43 57 60 87 17 30 35 57 41
60 5 4 9 16 9 29 0 15 9 27 25 34 14 6 25 16 25 22 0 5 7 10 15 10 20 0 19
-16 -1 -24 -8 -3 -12 -10 -9 -16 4 -7 12 -7 25 0 29 15 68 12 72 -6 3 -14 47
37 83 95 5 9 17 27 26 41 9 14 20 41 24 60 3 19 11 53 17 75 9 34 12 37 18 20
8 -19 8 -19 16 -1 5 12 2 23 -7 30 -11 8 -14 41 -14 143 0 82 4 133 10 133 6
-1 12 16 15 36 7 54 28 55 27 2 0 -24 3 -72 7 -108 10 -83 10 -75 -3 -145 -6
-33 -12 -67 -13 -75 -2 -8 2 -16 7 -17 15 -3 45 146 38 190 -4 30 -2 37 10 37
14 0 12 8 -8 49 -25 49 -34 118 -15 106 6 -3 10 -13 10 -21 0 -29 30 -88 40
-78 7 7 3 24 -9 50 -17 36 -25 70 -22 102 1 6 9 12 19 12 21 0 69 46 59 57 -4
3 -18 -4 -32 -17 -30 -28 -32 -22 -6 22 26 45 38 110 20 106 -10 -2 -15 11
-17 44 -3 42 -1 47 17 45 20 -1 21 -8 21 -90 0 -56 4 -86 10 -82 6 3 10 51 10
107 0 88 -2 99 -15 88 -12 -10 -15 -10 -16 1 -2 46 -21 115 -54 189 -31 72
-38 101 -44 190 -4 58 -7 121 -5 140 15 194 16 239 5 273 -11 33 -10 40 8 63
18 23 21 24 21 7 0 -10 -5 -24 -11 -30 -14 -14 -3 -33 18 -33 13 0 14 8 9 50
-4 28 -4 50 -2 50 3 0 13 -15 23 -32 23 -44 22 -268 -1 -383 -19 -93 -28 -243
-15 -251 5 -3 9 22 9 56 0 38 4 59 10 55 6 -3 10 -20 10 -36 0 -20 4 -29 13
-26 6 2 28 -4 47 -14 41 -21 129 -20 192 4 38 13 88 53 88 69 0 14 -27 9 -41
-9 -32 -38 -128 -64 -173 -47 -28 11 -17 26 14 19 55 -12 31 11 -27 25 -84 22
-82 42 4 34 70 -6 130 7 118 26 -4 7 -12 7 -25 0 -27 -14 -112 -12 -133 4 -11
9 -15 20 -11 31 5 13 3 16 -7 13 -8 -2 -15 -14 -17 -26 -2 -12 -7 -20 -12 -17
-5 3 -11 1 -15 -5 -3 -6 1 -13 9 -16 18 -7 11 -24 -10 -24 -10 0 -14 12 -14
38 0 30 6 41 29 57 19 12 31 30 34 50 6 37 4 39 -22 24 -26 -17 -40 -3 -15 16
11 8 14 15 7 15 -18 0 -16 20 2 20 8 0 15 -5 15 -11 0 -16 20 1 30 25 4 12 3
26 -3 34 -7 9 -7 16 0 20 5 4 10 24 11 45 1 35 0 37 -28 37 -17 0 -30 5 -30
10 0 6 4 10 9 10 5 0 19 16 32 36 19 32 20 37 7 45 -10 6 -14 17 -11 29 3 11
0 20 -6 20 -6 0 -11 11 -11 25 0 18 -5 25 -20 25 -28 0 -26 31 5 60 22 21 28
22 51 11 21 -9 29 -9 35 0 6 10 17 9 51 -4 75 -29 125 -18 177 37 31 33 40
110 17 154 -21 42 -83 89 -98 74 -13 -13 -2 -32 21 -32 30 0 61 -54 61 -108 0
-26 -6 -55 -12 -64 -40 -49 -115 -63 -170 -30 -30 17 -68 77 -68 108 0 27 41
75 76 90 33 14 41 24 28 37 -9 9 -43 -10 -87 -49 -44 -41 -58 -42 -91 -9 -16
16 -36 25 -56 25 -31 0 -34 -3 -44 -52 -6 -27 -36 -40 -36 -17 0 7 -12 9 -35
5 -30 -6 -35 -4 -35 12 0 31 -45 102 -99 159 -56 58 -76 113 -42 113 11 0 23
5 26 10 4 6 24 19 45 30 58 30 91 115 37 94 -12 -4 -15 -13 -11 -29 5 -19 1
-24 -25 -30 -17 -4 -39 -14 -48 -23 -12 -12 -18 -13 -21 -4 -2 6 -10 12 -17
12 -17 0 -65 50 -65 67 0 7 7 13 15 13 9 0 15 -9 15 -25 0 -20 6 -25 36 -31
22 -4 40 -2 47 5 8 8 7 11 -6 11 -22 0 -21 9 3 40 15 20 21 23 31 13 17 -17
29 -16 29 2 0 8 -7 15 -15 15 -8 0 -15 4 -15 10 0 5 15 7 34 5 30 -4 34 -2 39
23 6 32 -9 54 -23 32 -8 -12 -13 -11 -33 8 -27 25 -42 29 -33 7 3 -9 0 -15 -9
-15 -8 0 -18 -7 -23 -16 -11 -19 -32 -11 -32 12 0 8 -4 12 -10 9 -5 -3 -10 -1
-10 4 0 6 10 10 23 8 17 -1 21 3 20 18 -1 11 0 14 3 8 7 -15 34 -17 34 -3 0 6
11 8 25 4 18 -4 32 -1 45 11 11 10 20 13 20 8 0 -6 11 -14 25 -17 16 -4 25
-13 23 -23 -2 -9 2 -18 8 -20 12 -4 36 75 28 89 -10 15 -24 8 -24 -13 0 -12
-5 -19 -12 -16 -7 2 -12 11 -10 21 3 18 -14 22 -20 4 -3 -7 -7 -2 -10 10 -5
19 -2 22 20 22 19 0 32 9 44 30 19 34 14 40 -25 33 -27 -5 -27 -6 -11 -24 15
-16 15 -19 2 -19 -9 0 -22 7 -29 16 -11 14 -10 19 13 39 29 25 40 56 22 62 -6
2 -15 -6 -19 -19 -6 -21 -8 -20 -15 12 -5 19 -5 39 0 45 25 30 -13 111 -46 98
-7 -2 -15 1 -19 7 -5 8 -11 8 -21 -1 -12 -9 -14 -5 -14 25 0 25 4 36 15 36 8
0 15 5 15 10 0 15 -36 12 -49 -4 -6 -7 -9 -21 -5 -30 9 -25 -19 -20 -50 9 -15
14 -29 25 -32 25 -13 0 -1 -71 16 -93 11 -14 20 -34 20 -44 0 -24 19 -43 42
-43 15 0 17 -5 12 -26 -8 -30 12 -30 30 -1 8 13 7 20 -4 27 -13 8 -13 11 0 24
17 17 71 11 65 -8 -2 -6 -6 -24 -10 -39 -4 -20 -10 -27 -21 -23 -9 4 -21 -5
-33 -25 -11 -18 -22 -26 -25 -20 -10 16 -26 13 -26 -4 0 -28 32 -30 54 -3 12
14 34 28 49 32 24 6 28 4 25 -11 -2 -10 -12 -18 -24 -18 -12 -1 -32 -14 -46
-30 -30 -34 -54 -29 -71 15 -6 17 -15 30 -19 30 -16 0 -7 -51 12 -70 24 -24
25 -30 5 -30 -18 0 -18 -5 -5 -30 8 -16 5 -25 -18 -47 -21 -20 -29 -38 -29
-64 0 -20 -8 -48 -18 -62 -14 -22 -15 -30 -5 -42 16 -20 4 -35 -28 -35 -16 0
-32 8 -40 20 -7 11 -19 20 -27 20 -8 0 -15 7 -15 15 0 8 5 15 10 15 6 0 22 11
35 25 19 18 25 35 25 69 0 90 -35 136 -127 165 -34 11 -52 21 -44 25 8 5 10
19 6 37 -6 27 -4 29 23 29 23 0 32 6 42 29 14 34 6 58 -15 41 -9 -8 -14 -6
-19 6 -9 22 -8 24 9 18 19 -8 19 -3 -2 43 -23 50 -23 50 -32 34 -15 -24 -37 7
-33 46 3 25 0 33 -12 33 -26 0 -28 -23 -7 -74 14 -32 26 -46 37 -44 13 2 16
-7 18 -52 l1 -55 -32 3 c-33 3 -53 -17 -53 -55 0 -14 5 -12 23 11 l24 29 1
-37 c1 -33 -1 -36 -19 -31 -42 14 -13 -20 42 -48 30 -15 63 -39 74 -52 15 -18
24 -22 32 -14 8 8 13 7 18 -1 5 -8 1 -16 -9 -22 -10 -6 -16 -22 -16 -43 0 -28
-4 -35 -20 -35 -19 0 -19 -1 -4 -39 12 -31 13 -44 4 -61 -13 -25 1 -43 26 -33
6 2 15 0 18 -5 3 -5 -7 -12 -23 -15 -15 -3 -50 -23 -77 -44 -63 -48 -94 -66
-102 -58 -8 7 55 60 95 80 30 14 52 35 38 35 -3 0 -19 -7 -36 -15 -52 -27
-169 12 -169 56 0 25 26 25 40 -1 15 -29 81 -46 118 -31 29 12 52 47 52 77 0
27 -57 76 -80 69 -15 -5 -18 -3 -14 9 7 19 4 19 -30 6 -14 -5 -26 -16 -26 -25
0 -8 -4 -15 -10 -15 -19 0 -10 -21 14 -29 13 -5 26 -17 30 -26 4 -12 14 -14
40 -10 19 4 36 2 40 -3 7 -12 -77 -28 -93 -17 -6 3 -11 12 -11 19 0 18 -35 27
-49 13 -17 -17 -14 46 4 69 8 10 15 33 15 51 0 42 9 63 27 63 12 0 13 -3 4
-14 -9 -10 -9 -16 -1 -21 8 -5 8 -11 -1 -21 -9 -11 -8 -14 2 -14 29 0 38 15
32 53 -3 20 -10 37 -14 37 -5 0 -9 9 -9 20 0 34 -27 22 -34 -15 -8 -41 -36
-49 -36 -11 0 14 5 28 10 31 5 3 10 15 10 26 0 10 -4 19 -10 19 -5 0 -10 -7
-10 -16 0 -13 -5 -11 -25 7 l-24 24 22 5 c17 5 23 14 25 42 3 30 -3 42 -33 71
-20 20 -52 43 -71 52 -39 18 -43 30 -14 45 23 12 40 6 40 -15 0 -8 8 -19 19
-24 14 -8 23 -5 41 14 l24 25 -22 20 c-12 11 -28 20 -37 20 -18 0 -19 12 -3
28 15 15 4 26 -17 19 -8 -4 -15 -18 -15 -32 0 -18 -5 -25 -19 -25 -10 0 -25
-9 -32 -19 -8 -11 -28 -22 -46 -26 -26 -5 -32 -3 -38 14 -3 12 -11 21 -17 21
-6 0 -7 -8 -3 -17 12 -32 10 -37 -12 -41 -29 -4 -29 -6 2 -36 26 -26 29 -25
25 8 -1 11 3 17 12 14 19 -7 22 -62 4 -78 -9 -7 -16 -20 -16 -30 0 -10 -9 -20
-20 -23 -11 -3 -18 -1 -14 4 3 5 -2 9 -10 9 -8 0 -18 -4 -21 -10 -3 -5 -15
-10 -27 -10 -29 0 -75 -30 -87 -57 -12 -25 -41 -32 -41 -9 0 20 19 38 74 66
40 22 46 29 46 57 0 17 -4 34 -10 38 -17 10 1 35 26 35 13 0 24 5 24 10 0 6
-4 10 -10 10 -5 0 -10 5 -10 11 0 6 9 9 20 6 16 -4 19 -1 14 17 -3 15 3 28 23
46 15 14 34 23 41 22 9 -2 11 5 6 24 -6 24 -5 26 17 19 13 -4 26 -12 27 -16 7
-19 23 -8 17 11 -4 11 -2 20 4 20 19 0 12 17 -11 28 -20 9 -20 11 -5 11 29 1
14 26 -17 29 -16 2 -36 -4 -47 -14 -18 -16 -19 -15 -28 8 -15 39 -39 54 -62
39 -11 -6 -29 -9 -40 -6 -11 4 -19 2 -19 -4 0 -6 5 -11 10 -11 6 0 10 -4 10
-10 0 -5 -8 -10 -18 -10 -33 0 -62 -42 -62 -88 0 -23 -3 -42 -6 -42 -3 0 -20
10 -37 22 -25 18 -45 22 -111 22 -50 1 -81 -4 -83 -10 -5 -16 46 -27 61 -15 7
6 16 8 20 4 4 -4 17 -8 29 -8 14 0 23 -7 25 -20 2 -15 1 -17 -6 -6 -7 9 -19
11 -43 6 -19 -5 -28 -10 -21 -12 28 -10 9 -22 -40 -25 -53 -3 -73 -20 -30 -26
12 -2 22 -9 22 -17 0 -7 11 -16 25 -19 14 -4 25 -13 25 -21 0 -21 -14 -19 -35
5 -20 22 -35 26 -35 9 0 -17 93 -98 114 -99 15 0 16 3 7 14 -15 18 7 59 26 52
7 -3 15 -1 18 4 3 5 -5 12 -19 16 -32 8 -56 34 -32 34 10 0 26 -5 38 -11 11
-6 22 -8 25 -5 10 10 -42 51 -60 48 -11 -2 -17 3 -17 13 0 13 6 16 26 12 16
-3 28 0 31 9 3 8 11 14 18 14 20 0 24 -23 6 -37 -13 -9 -10 -14 24 -30 22 -10
43 -23 48 -30 4 -7 14 -10 22 -7 19 8 19 -10 0 -26 -20 -16 -45 -5 -45 20 0
11 -5 20 -10 20 -17 0 -23 -29 -10 -45 13 -16 9 -18 -27 -15 -18 1 -23 -4 -23
-24 0 -19 5 -26 20 -26 13 0 20 -7 20 -18 0 -25 -11 -34 -26 -21 -10 8 -12 3
-7 -28 6 -44 23 -69 23 -35 0 12 5 22 10 22 6 0 10 -9 10 -21 0 -11 7 -27 15
-35 8 -9 15 -23 15 -32 0 -15 -2 -15 -10 -2 -8 12 -10 11 -10 -8 0 -23 -25
-41 -38 -27 -4 4 -1 10 6 12 14 5 16 23 2 23 -5 0 -15 -18 -21 -40 -8 -27 -17
-40 -27 -38 -22 4 -27 28 -7 28 14 0 15 3 5 15 -7 8 -10 22 -6 30 8 21 -3 45
-21 45 -11 0 -13 -7 -8 -30 5 -24 3 -30 -10 -30 -11 0 -15 -5 -11 -15 4 -10
-8 -21 -39 -35 -54 -25 -73 -53 -71 -103 2 -44 -6 -54 -25 -31 -10 12 -10 20
-1 35 15 23 15 29 2 29 -5 0 -10 -7 -10 -15 0 -25 -17 -17 -30 15 -16 38 -33
39 -24 3 6 -24 4 -26 -7 -15 -22 20 -18 107 5 129 18 17 19 17 11 -2 -17 -44
-18 -68 -4 -63 8 2 15 17 17 31 4 32 36 57 73 57 42 0 71 43 66 96 -5 44 -33
93 -54 94 -19 0 -16 -14 7 -35 44 -40 30 -135 -20 -135 -17 0 -17 2 5 25 27
26 33 73 13 93 -20 20 -27 13 -21 -22 4 -28 1 -39 -21 -61 -14 -14 -26 -30
-26 -35 0 -4 -9 -6 -19 -3 -14 3 -26 -6 -45 -33 -27 -41 -33 -82 -16 -115 13
-23 -2 -26 -24 -4 -8 8 -19 15 -25 15 -5 0 -18 14 -28 30 -9 17 -20 30 -24 30
-4 0 -10 19 -14 43 -4 23 -12 45 -18 49 -8 5 -4 15 12 32 26 27 23 52 -9 81
-11 10 -20 24 -20 32 0 7 -4 13 -10 13 -5 0 -10 -7 -10 -15 0 -8 -4 -15 -10
-15 -13 0 -13 27 1 35 5 4 14 18 20 32 14 38 31 17 24 -29 -6 -32 -4 -39 6
-36 8 3 18 19 23 37 9 30 6 35 -40 82 l-48 49 35 0 c28 0 54 10 88 36 1 1 0 8
-4 14 -4 7 -16 4 -35 -10 -35 -25 -61 -25 -91 -1 -31 25 -33 93 -5 114 20 15
14 40 -7 31 -11 -4 -47 42 -47 60 0 15 18 4 30 -19 7 -14 19 -25 26 -25 7 0
18 -9 25 -21 8 -16 14 -18 22 -10 8 8 1 21 -25 49 -19 20 -38 46 -42 57 -7 20
-7 20 -22 0 -14 -19 -15 -19 -20 3 -7 23 -19 29 -29 12z m825 -110 c0 -6 -11
-15 -24 -20 -13 -5 -27 -14 -31 -19 -9 -16 -35 -13 -35 4 0 9 9 15 25 15 16 0
25 6 25 15 0 8 9 15 20 15 11 0 20 -5 20 -10z m1 -61 c-12 -13 -23 -20 -27
-17 -3 3 -24 -12 -46 -33 -23 -21 -45 -39 -50 -39 -7 0 -6 44 1 99 1 3 7 -4
15 -14 13 -18 15 -18 59 8 25 15 49 33 54 40 5 9 8 7 11 -5 2 -10 -6 -27 -17
-39z m-5 -50 c4 -8 9 -8 17 0 18 18 28 12 17 -10 -7 -11 -18 -18 -25 -15 -18
6 -51 -32 -47 -55 2 -14 -3 -19 -17 -19 -22 0 -30 19 -8 21 10 0 10 2 0 6 -20
7 -15 24 14 55 29 30 38 34 49 17z m-775 -118 c-2 -41 13 -61 47 -61 25 0 25
0 6 -21 -10 -11 -19 -30 -19 -42 0 -12 -6 -21 -12 -19 -7 1 -13 -7 -13 -18 0
-14 -7 -20 -24 -20 -35 0 -56 10 -56 26 0 12 4 12 20 2 59 -37 76 74 19 122
-35 30 -39 55 -8 45 20 -7 21 -4 15 20 -18 74 -17 81 5 40 12 -22 21 -55 20
-74z m1519 36 c22 6 24 5 11 -10 -17 -21 -35 -22 -55 -1 -22 22 -20 41 2 21
12 -11 26 -14 42 -10z m-594 -65 c4 -24 19 -53 40 -76 45 -50 46 -79 1 -38
-15 12 -21 14 -24 5 -3 -7 -8 -13 -12 -13 -16 0 -48 77 -50 118 -1 36 2 42 19
42 15 0 21 -9 26 -38z m701 18 c-2 -10 -13 -14 -36 -12 -24 2 -38 -4 -52 -20
-16 -20 -20 -21 -29 -8 -14 22 -7 34 27 45 47 16 94 13 90 -5z m-1648 -52 c10
-28 5 -39 -14 -31 -17 6 -21 53 -5 53 6 0 14 -10 19 -22z m1045 -7 c18 -19 26
-36 22 -46 -10 -26 -31 -11 -28 19 3 25 2 26 -16 17 -24 -13 -32 -6 -25 20 7
26 14 24 47 -10z m-376 -13 c-5 -15 -58 -24 -58 -9 0 9 20 17 48 20 8 0 12 -5
10 -11z m62 -3 c0 -13 -36 -35 -56 -35 -12 0 -2 30 14 39 25 15 42 13 42 -4z
m-727 -51 c-3 -8 -8 -14 -12 -14 -12 0 -31 23 -31 37 0 10 5 10 24 2 14 -7 22
-17 19 -25z m-63 7 c0 -23 -16 -36 -25 -21 -9 14 1 40 15 40 5 0 10 -9 10 -19z
m979 -17 c8 -7 -30 -16 -44 -10 -27 10 -17 27 13 20 15 -4 29 -8 31 -10z
m-779 -32 c0 -9 -9 -28 -19 -41 -18 -24 -18 -24 -50 -5 -17 10 -31 24 -31 31
0 19 17 16 29 -4 13 -23 44 -6 49 26 4 24 22 19 22 -7z m794 3 c130 -5 132 -7
129 -184 -1 -130 -3 -142 -27 -180 -40 -63 -89 -91 -159 -91 -55 0 -60 2 -108
46 -37 36 -51 56 -55 86 -4 21 -11 41 -15 44 -5 3 -9 59 -9 125 0 114 1 121
25 145 22 22 30 24 77 18 29 -3 93 -8 142 -9z m716 -50 c0 -16 -34 -38 -44
-28 -3 3 -6 15 -6 25 0 13 7 18 25 18 15 0 25 -6 25 -15z m-60 -36 c9 -16 18
-19 36 -15 32 8 31 -7 -2 -25 -24 -12 -28 -12 -45 10 -20 25 -25 51 -9 51 5 0
14 -9 20 -21z m-1694 -8 c-3 -4 -18 -11 -34 -14 -66 -13 -122 -92 -122 -172 0
-64 19 -94 90 -144 34 -24 59 -45 56 -48 -2 -3 -37 14 -76 37 -130 76 -152
165 -70 279 22 30 42 44 77 55 55 17 87 20 79 7z m774 -76 c0 -25 -14 -34 -24
-16 -8 12 3 41 15 41 5 0 9 -11 9 -25z m-41 -21 c6 -15 9 -29 7 -32 -10 -9
-36 20 -36 39 0 27 15 23 29 -7z m-623 -25 c8 -6 14 -22 14 -34 0 -24 22 -49
34 -38 7 7 66 -45 66 -59 0 -14 -21 -9 -52 13 -32 23 -41 20 -44 -14 -2 -30
13 -47 43 -47 21 0 24 -4 19 -23 -4 -18 3 -31 28 -56 19 -18 39 -30 44 -27 6
3 13 2 17 -4 9 -15 51 -12 65 5 7 8 16 12 21 9 5 -3 -5 -20 -21 -37 -44 -47
-40 -101 5 -71 23 15 100 10 111 -7 3 -5 16 -9 29 -9 33 0 40 -17 13 -31 -13
-6 -33 -23 -46 -38 l-23 -26 4 25 c2 14 8 33 12 44 7 16 5 17 -16 12 -13 -4
-34 -12 -47 -18 -17 -9 -25 -9 -34 0 -19 19 -58 15 -59 -5 -3 -44 4 -79 18
-95 26 -30 -6 -23 -73 15 -52 29 -60 38 -81 92 -13 32 -23 67 -23 77 0 21 -39
87 -64 108 -10 7 -36 23 -58 34 -83 42 -99 133 -36 197 29 28 36 31 76 25 25
-3 51 -11 58 -17z m-224 -47 c-4 -54 -2 -61 32 -105 37 -48 38 -54 6 -37 -46
25 -69 95 -54 169 11 52 21 35 16 -27z m1721 38 c6 -24 29 -26 47 -5 15 18 30
20 30 3 0 -18 -41 -58 -60 -58 -24 0 -40 21 -40 52 0 32 15 38 23 8z m-960
-15 c-3 -9 1 -15 11 -15 19 0 21 -11 4 -28 -16 -16 -2 -28 16 -13 18 15 56 5
56 -15 0 -8 -4 -14 -10 -14 -5 0 -7 -7 -4 -15 4 -8 2 -15 -4 -15 -5 0 -12 9
-15 20 -3 11 -10 20 -16 20 -7 0 -9 -9 -5 -24 4 -17 1 -25 -12 -30 -10 -4 -21
-2 -24 5 -5 7 -17 8 -31 4 -21 -7 -22 -6 -10 8 7 9 10 25 7 34 -6 15 -8 15
-16 3 -11 -17 -13 -9 -4 14 9 23 21 20 37 -10 11 -20 16 -23 22 -14 6 9 -3 23
-26 42 l-34 29 24 20 c25 20 44 17 34 -6z m140 -64 c2 -16 -29 -38 -40 -27 -4
4 0 12 10 18 18 9 18 11 1 29 -9 10 -25 19 -36 19 -10 0 -18 5 -18 10 0 6 11
10 24 10 14 0 28 6 33 12 6 12 18 -20 26 -71z m567 48 c0 -14 -7 -19 -26 -19
-25 0 -25 6 -1 37 12 17 27 7 27 -18z m107 16 c0 -17 -24 -28 -32 -15 -4 6 -3
15 0 20 9 15 32 12 32 -5z m-1061 -41 c33 -16 42 -28 26 -38 -10 -6 -72 33
-72 45 0 12 7 11 46 -7z m-621 -43 c8 -47 56 -96 124 -128 97 -46 158 -117
176 -203 4 -19 13 -45 21 -57 8 -13 10 -23 5 -23 -11 0 -81 77 -81 90 0 6 -4
10 -10 10 -5 0 -10 -9 -10 -21 0 -21 69 -91 115 -115 14 -8 37 -21 53 -29 15
-8 34 -15 43 -15 9 0 33 -7 52 -15 49 -20 83 -19 180 6 45 11 91 23 102 26 48
12 125 15 125 5 0 -6 -8 -13 -17 -15 -11 -3 -6 -5 11 -6 49 -2 127 -61 81 -61
-8 0 -15 -5 -15 -11 0 -15 -30 -43 -38 -35 -3 4 -1 16 6 27 18 28 8 38 -49 45
-36 5 -49 10 -45 20 7 19 3 18 -57 -9 -159 -72 -225 -75 -342 -16 -38 20 -83
39 -98 43 -39 9 -100 49 -126 82 -29 37 -27 85 4 114 32 30 31 43 -3 81 -21
24 -42 34 -97 45 -91 19 -135 41 -162 83 -25 37 -28 57 -14 94 7 17 17 25 34
25 21 0 26 -7 32 -37z m1415 -61 c-15 -28 -12 -35 8 -18 17 16 75 18 90 4 4
-4 -4 -17 -18 -27 -14 -11 -32 -26 -40 -32 -24 -20 -78 -39 -89 -32 -8 4 -8
12 -1 25 7 13 6 21 -5 30 -17 14 -11 32 9 24 9 -3 18 6 25 26 6 17 15 29 21
25 7 -4 7 -12 0 -25z m-904 -2 c19 -21 19 -21 -3 -16 -28 7 -38 -5 -19 -21 9
-8 16 -8 20 -2 4 6 13 8 21 4 8 -3 15 -1 15 4 0 6 34 11 75 11 44 1 75 -2 75
-8 0 -6 -6 -10 -14 -10 -7 0 -29 -11 -49 -24 -30 -20 -47 -24 -97 -23 -52 2
-65 6 -81 26 -22 27 -25 51 -5 51 7 0 19 7 26 15 16 19 13 19 36 -7z m1174 -1
c0 -8 -12 -20 -26 -27 -14 -8 -30 -22 -35 -32 -5 -10 -17 -18 -25 -18 -9 0
-23 -8 -32 -19 -19 -21 -91 -41 -151 -41 -56 0 -52 16 7 24 55 7 142 37 142
48 0 11 92 77 108 78 6 0 12 -6 12 -13z m129 -1 c7 -9 8 -17 2 -20 -14 -9 -41
4 -41 20 0 18 24 18 39 0z m-699 -74 c-6 -2 -20 4 -31 14 -11 10 -19 12 -19 6
0 -7 -7 -12 -15 -12 -11 0 -15 11 -15 35 l0 36 45 -38 c25 -21 41 -39 35 -41z
m630 38 c0 -35 15 -40 25 -7 4 13 8 17 12 10 2 -7 11 -13 19 -13 7 0 17 -12
20 -26 7 -29 -3 -122 -19 -164 -13 -36 -17 -70 -7 -70 5 0 10 11 10 25 0 18 7
28 26 35 26 10 44 6 44 -11 0 -5 -6 -9 -14 -9 -9 0 -12 -7 -9 -20 3 -10 10
-18 16 -17 6 1 12 -5 14 -13 2 -10 -9 -19 -34 -27 -42 -13 -72 -3 -74 25 -4
44 4 111 17 150 16 50 18 102 4 102 -5 0 -10 -16 -10 -35 0 -41 -5 -43 -37
-14 -14 14 -36 22 -60 23 -45 1 -52 24 -14 42 13 7 28 20 33 28 15 27 38 19
38 -14z m-1494 -31 c18 -11 43 -36 55 -55 21 -35 62 -155 54 -162 -5 -5 -35
54 -35 70 0 27 -43 94 -83 130 -46 41 -42 49 9 17z m844 -34 c0 -8 -9 -15 -19
-15 -24 0 -36 16 -19 23 24 10 38 7 38 -8z m540 6 c0 -5 -13 -16 -30 -25 -35
-17 -39 -11 -8 15 23 21 38 24 38 10z m-318 -17 c4 -3 8 -14 8 -25 0 -20 16
-26 22 -9 2 7 14 5 34 -4 36 -18 101 -18 130 0 25 17 102 11 121 -9 12 -12 9
-17 -21 -35 -20 -12 -36 -26 -36 -32 0 -6 11 -3 25 6 25 16 25 16 32 -16 l6
-33 17 23 c10 13 22 20 29 16 6 -4 11 -2 11 3 0 6 9 11 20 11 24 0 47 -47 31
-63 -7 -7 -14 -1 -20 16 -6 15 -14 27 -17 27 -4 0 -25 -15 -48 -33 -56 -44
-93 -67 -99 -61 -9 9 4 34 18 34 6 0 20 8 29 19 15 17 16 19 1 25 -20 7 -35 0
-35 -18 0 -8 -11 -13 -25 -13 -14 0 -25 3 -25 8 0 5 6 9 14 9 8 0 18 5 22 11
4 7 0 9 -13 5 -12 -4 -25 -1 -32 8 -14 17 -5 40 11 30 6 -4 13 -3 17 2 3 5 20
16 36 24 l30 14 -35 4 c-23 2 -38 -2 -46 -12 -6 -9 -16 -16 -23 -16 -6 0 -14
-13 -17 -30 -4 -16 -9 -30 -13 -30 -3 0 -17 14 -31 30 -24 29 -50 40 -50 20 0
-5 9 -15 20 -22 11 -7 20 -21 20 -30 0 -11 5 -15 14 -12 20 8 32 -20 41 -91 6
-47 9 -56 18 -45 18 23 59 41 101 44 20 2 42 8 49 15 15 15 27 14 27 -3 0 -8
7 -16 15 -20 8 -3 15 -10 15 -16 0 -5 -7 -10 -15 -10 -16 0 -21 -15 -7 -23 4
-3 23 3 42 14 19 10 29 18 23 19 -19 0 -16 17 3 24 21 8 56 -2 49 -14 -10 -17
14 -20 29 -4 9 9 23 13 31 10 8 -3 17 -1 20 4 3 5 19 5 37 -1 21 -5 36 -5 42
1 12 12 53 13 60 1 3 -5 -1 -11 -9 -15 -8 -3 -15 -12 -15 -21 0 -11 -6 -14
-25 -9 -15 4 -25 2 -25 -5 0 -6 6 -12 13 -12 50 -6 74 -5 89 3 21 10 48 0 48
-18 0 -18 -66 -30 -85 -14 -12 10 -18 10 -29 1 -12 -10 -19 -8 -35 8 -26 26
-31 26 -31 1 0 -16 9 -21 52 -26 70 -9 106 -43 114 -106 7 -49 -8 -69 -19 -26
-4 12 -9 19 -13 15 -4 -3 -1 -21 7 -39 16 -38 18 -198 5 -348 -11 -124 3 -210
55 -339 41 -103 59 -178 39 -166 -5 3 -10 17 -10 30 0 13 -4 34 -9 47 -5 13
-25 61 -45 108 -38 91 -62 215 -51 258 4 15 8 105 10 201 3 167 3 177 -20 221
-31 60 -46 72 -118 90 -33 9 -62 21 -65 28 -10 32 117 -4 161 -46 15 -14 27
-21 27 -16 0 25 -61 74 -93 74 -29 0 -48 26 -41 55 4 15 2 25 -5 25 -6 0 -11
-5 -11 -11 0 -7 -12 -10 -30 -7 -16 3 -30 1 -30 -3 0 -4 -12 -12 -27 -17 l-28
-10 32 -1 c17 -1 35 4 38 9 7 11 25 4 25 -10 0 -5 -12 -15 -27 -22 -31 -15
-143 -12 -143 3 0 5 9 9 20 9 11 0 20 5 20 10 0 13 -19 13 -60 -1 -39 -14 -53
1 -39 38 13 35 12 50 -3 35 -6 -6 -14 -31 -17 -54 -5 -38 -9 -43 -31 -43 -20
0 -26 6 -28 27 -2 16 -11 30 -23 33 -30 10 -39 -2 -28 -37 10 -37 4 -71 -23
-115 -23 -38 -43 -44 -35 -10 3 12 8 37 12 55 5 21 4 32 -3 32 -6 0 -14 -15
-17 -34 -7 -33 -55 -96 -74 -96 -6 0 -19 20 -30 45 -15 35 -18 52 -11 71 12
31 13 84 2 84 -4 0 -25 -16 -46 -35 -34 -31 -38 -39 -33 -70 7 -40 -2 -48 -93
-86 -30 -12 -63 -29 -73 -37 -12 -11 -45 -16 -102 -18 l-85 -3 0 29 c0 35 10
38 35 10 22 -24 35 -26 35 -4 0 9 -9 18 -19 21 -30 8 -33 29 -10 71 30 54 79
90 79 58 0 -8 6 -16 13 -19 8 -3 6 -10 -8 -21 -20 -15 -20 -15 1 -16 12 0 27
7 34 15 7 8 18 15 24 15 6 1 20 15 31 32 21 34 65 54 93 43 13 -5 7 -11 -26
-25 -31 -14 -47 -29 -57 -54 -17 -41 -20 -86 -5 -86 6 0 10 17 10 38 0 44 8
56 26 41 15 -12 34 -4 34 15 0 17 33 46 75 65 l34 16 -14 40 c-7 22 -16 52
-19 67 -3 15 -20 43 -36 62 -32 35 -40 57 -15 36 12 -10 15 -10 15 4 0 9 6 16
13 16 22 0 61 60 48 73 -8 8 -11 8 -11 -2 0 -16 -64 -74 -68 -62 -2 6 2 19 8
31 9 16 8 25 0 35 -20 24 -1 38 43 31 22 -4 44 -9 49 -12z m-510 -6 c3 -7 16
-13 29 -13 14 -1 30 -5 37 -9 6 -4 21 -2 33 4 27 15 36 6 15 -15 -14 -14 -24
-15 -67 -6 -61 13 -92 29 -84 42 9 13 33 11 37 -3z m-102 -14 c0 -11 5 -14 16
-10 29 11 127 -55 117 -80 -3 -8 -1 -14 5 -14 6 0 12 6 15 13 4 9 7 9 18 -1
10 -9 11 -15 2 -20 -6 -4 -15 -20 -18 -35 -7 -24 -11 -27 -54 -27 -25 -1 -63
-7 -84 -14 -24 -9 -39 -10 -43 -4 -7 11 13 28 32 28 6 0 18 7 25 16 10 12 23
14 52 10 30 -5 37 -4 31 6 -5 7 -10 22 -11 32 -5 28 -10 31 -28 16 -22 -19
-44 2 -25 25 7 8 8 15 2 15 -5 0 -15 -7 -22 -15 -17 -21 -41 -19 -47 4 -4 17
-8 18 -24 8 -14 -9 -21 -9 -31 1 -11 11 -8 18 15 38 32 28 57 31 57 8z m409
-9 c-17 -18 -35 -25 -61 -25 -21 0 -38 5 -38 11 0 5 5 7 10 4 12 -7 80 16 80
27 0 4 7 8 16 8 13 0 11 -5 -7 -25z m101 -8 c0 -5 -9 -11 -21 -14 -14 -4 -18
-11 -14 -22 8 -19 8 -17 6 -63 -1 -42 -17 -51 -24 -15 -3 16 -5 13 -6 -10 -1
-27 -7 -36 -33 -48 l-33 -15 33 6 c31 5 33 4 30 -17 -4 -29 -60 -49 -89 -31
-14 9 -20 9 -25 0 -4 -7 -2 -14 4 -16 17 -5 15 -22 -3 -22 -8 0 -14 -5 -12
-11 4 -20 -52 -19 -63 0 -5 10 -6 21 -3 25 3 3 -6 6 -21 6 -15 0 -29 7 -32 15
-4 10 -13 13 -27 9 -19 -6 -20 -3 -14 46 6 53 31 95 50 83 5 -3 23 -6 39 -5
16 0 28 -2 26 -6 -2 -4 -10 -19 -17 -34 -8 -16 -22 -28 -33 -28 -10 0 -18 -7
-18 -15 0 -18 7 -18 49 -4 24 8 31 16 29 33 -4 29 16 33 20 4 2 -13 8 -28 13
-35 7 -7 5 -13 -3 -16 -7 -2 -10 -8 -6 -12 4 -4 13 -3 20 1 7 5 21 7 31 6 9
-2 17 2 17 7 0 6 -6 11 -14 11 -20 0 -26 12 -19 38 6 24 32 29 50 11 13 -13
36 -3 27 12 -3 5 -9 7 -14 4 -21 -13 -17 14 5 33 14 12 25 27 25 33 0 11 -15
5 -43 -19 -13 -12 -20 -13 -29 -4 -17 17 20 55 49 49 16 -3 24 2 29 17 12 38
23 47 45 33 10 -6 19 -16 19 -20z m520 19 c0 -20 -12 -27 -27 -14 -11 9 -15 7
-20 -10 -5 -20 -33 -32 -33 -14 1 34 13 48 46 49 21 1 34 -4 34 -11z m-1553
-18 c13 -12 23 -27 23 -35 0 -21 -16 -15 -28 12 -6 14 -16 25 -22 25 -5 0 -10
5 -10 10 0 16 12 12 37 -12z m1723 -57 c0 -3 -13 -7 -30 -8 -24 -2 -31 2 -36
22 -10 41 5 49 37 19 16 -15 29 -30 29 -33z m-142 28 c-2 -17 -11 -22 -45 -23
-48 -3 -55 5 -20 22 55 27 69 27 65 1z m-816 -3 c7 5 9 0 6 -14 -8 -28 3 -28
20 -2 14 23 52 27 52 5 0 -8 -6 -15 -14 -15 -8 0 -16 -6 -19 -13 -3 -9 -16
-12 -35 -9 -23 3 -29 8 -25 20 5 12 1 14 -16 9 -25 -6 -73 11 -66 23 3 5 23 4
46 -1 22 -5 45 -6 51 -3z m105 -63 c-4 -28 -21 -41 -31 -24 -7 11 14 51 27 51
4 0 6 -12 4 -27z m891 -7 c10 -22 8 -25 -15 -31 -33 -8 -35 -4 -20 28 15 33
21 34 35 3z m-688 -119 c6 -32 9 -61 6 -64 -11 -12 -23 9 -35 62 -7 30 -17 55
-22 55 -11 0 -12 33 -2 44 13 13 41 -38 53 -97z m-610 83 c0 -6 -10 -14 -22
-19 -18 -6 -19 -9 -5 -14 30 -11 19 -29 -13 -22 -25 5 -29 4 -24 -9 8 -22 -2
-20 -26 4 -24 24 -26 34 -5 26 8 -3 18 0 22 7 18 27 73 48 73 27z m-296 -18
c8 -25 71 -92 87 -92 8 0 4 9 -9 23 -12 13 -22 26 -22 28 0 3 27 -8 60 -24 57
-28 85 -33 198 -36 19 -1 31 -5 27 -11 -10 -16 -166 -12 -199 5 -16 9 -37 13
-47 10 -29 -10 -77 22 -99 65 -23 44 -24 50 -11 50 5 0 12 -8 15 -18z m1833
-4 c40 -37 26 -76 -22 -64 -33 8 -49 40 -35 66 14 26 28 25 57 -2z m-639 -18
c-1 -34 -4 -36 -24 -16 -17 18 -18 33 -1 39 23 10 26 7 25 -23z m424 15 c-2
-5 -9 -9 -14 -7 -6 1 -16 -2 -23 -8 -10 -8 -15 -8 -20 1 -4 6 -1 15 6 20 18
12 55 7 51 -6z m-762 -53 c0 -26 -25 -5 -27 23 -2 26 -1 26 12 9 8 -11 15 -25
15 -32z m-385 18 c3 -5 12 -7 20 -3 9 3 15 -1 15 -11 0 -9 -7 -16 -15 -16 -8
0 -15 5 -15 10 0 6 -16 10 -35 10 -19 0 -35 -4 -35 -9 0 -12 -39 -25 -47 -17
-4 3 2 15 12 26 19 21 89 28 100 10z m1425 -37 c0 -21 3 -49 7 -62 4 -17 2
-22 -8 -19 -27 9 -35 118 -9 118 6 0 10 -17 10 -37z m-136 10 c4 -5 26 -13 49
-18 66 -17 59 -60 -7 -48 -16 4 -31 14 -33 24 -3 11 -14 19 -24 19 -19 0 -25
11 -12 23 8 9 18 9 27 0z m-889 -33 c0 -22 -29 -18 -33 3 -3 14 1 18 15 15 10
-2 18 -10 18 -18z m-66 -5 c0 -5 -21 -16 -45 -23 -25 -7 -42 -17 -39 -22 4 -6
-3 -10 -13 -10 -15 0 -19 5 -15 20 6 24 16 31 57 41 38 9 58 7 55 -6z m1133
-35 c13 -22 14 -30 4 -30 -11 0 -36 39 -36 55 0 15 17 1 32 -25z m-82 -23 c0
-20 -22 -37 -49 -37 l-24 0 23 -25 c19 -20 21 -28 12 -37 -10 -10 -14 -8 -18
10 -4 13 -14 22 -25 22 -25 0 -24 30 1 37 25 7 26 19 3 32 -14 8 -8 10 30 11
32 0 47 -4 47 -13z m-1342 -16 c2 -6 -6 -11 -17 -11 -12 0 -21 -6 -21 -15 0
-21 -16 -19 -24 3 -3 9 -9 22 -12 29 -4 9 6 11 32 9 21 -2 40 -9 42 -15z m462
10 c0 -5 -7 -11 -15 -15 -19 -7 -19 -23 0 -60 20 -37 9 -48 -16 -17 -23 28
-24 49 -3 79 15 22 34 29 34 13z m-545 -11 c11 -17 -5 -32 -21 -19 -8 6 -14
15 -14 20 0 12 27 11 35 -1z m848 -23 c3 -7 1 -33 -4 -58 -12 -63 -11 -69 7
-62 11 4 14 13 10 29 -4 14 -2 24 4 24 5 0 10 9 10 21 0 11 4 18 9 15 10 -7 9
-86 -2 -103 -11 -17 -83 -10 -79 8 2 8 6 37 9 64 2 28 6 56 8 63 6 16 22 16
28 -1z m110 -41 l53 -55 76 3 c41 2 85 9 96 15 44 23 59 4 18 -22 -29 -20
-168 -32 -195 -17 -14 7 -22 7 -26 -1 -4 -6 2 -13 14 -16 32 -8 26 -26 -6 -19
-16 4 -37 8 -48 9 -15 2 -19 8 -17 26 2 13 -2 27 -9 32 -10 6 -10 11 1 24 11
13 10 19 -9 36 -18 17 -21 39 -5 39 2 0 28 -25 57 -54z m-1043 23 c0 -12 -29
-24 -37 -16 -3 4 -3 13 0 21 6 16 37 11 37 -5z m1119 7 c6 -7 9 -21 5 -30 -7
-19 25 -23 43 -5 9 9 11 7 9 -7 -4 -25 -63 -31 -91 -9 -17 14 -17 16 -2 11 18
-6 24 9 7 19 -15 9 -12 35 4 35 7 0 19 -6 25 -14z m-1229 -17 c0 -12 -47 -12
-54 0 -3 4 -3 10 0 13 7 8 54 -3 54 -13z m166 0 c8 -14 -18 -31 -30 -19 -9 9
0 30 14 30 5 0 12 -5 16 -11z m157 -11 c-2 -5 -5 -7 -7 -5 -2 1 -12 -6 -22
-15 -27 -24 -150 -51 -175 -38 -33 18 -21 27 46 33 36 3 77 13 92 21 28 16 70
18 66 4z m639 -14 c-4 -21 -29 -51 -37 -43 -2 3 1 20 7 37 13 34 35 38 30 6z
m372 7 c8 -12 -3 -41 -15 -41 -5 0 -9 11 -9 25 0 25 14 34 24 16z m-1256 -18
c2 -8 -5 -13 -17 -13 -12 0 -21 6 -21 16 0 18 31 15 38 -3z m-92 -28 c6 -16
-12 -45 -27 -45 -5 0 -9 7 -9 15 0 8 -4 15 -10 15 -5 0 -10 -9 -10 -20 0 -15
-7 -20 -29 -20 -15 0 -57 -9 -91 -20 -34 -11 -69 -20 -76 -20 -8 0 -14 -4 -14
-9 0 -10 65 -3 90 9 8 5 41 11 73 15 49 6 57 5 57 -9 0 -13 -12 -16 -68 -16
-38 0 -72 -3 -75 -6 -29 -30 -229 -61 -212 -34 3 6 15 10 26 10 10 0 19 4 19
9 0 15 -18 22 -25 10 -4 -5 -13 -8 -21 -5 -9 3 -18 -3 -23 -17 -7 -17 -25 -26
-74 -40 -98 -26 -167 -21 -167 13 0 31 26 41 127 51 54 5 115 16 136 24 20 8
63 15 94 15 69 0 194 34 242 65 42 28 60 30 67 10z m707 -1 c-3 -10 0 -22 8
-28 8 -6 23 -21 33 -34 33 -38 -8 -28 -50 13 -30 29 -34 38 -24 50 17 21 41
19 33 -1z m-633 -18 c0 -32 -16 -42 -29 -18 -7 13 -7 22 1 30 19 19 28 14 28
-12z m250 -1 c0 -19 -5 -25 -21 -25 -18 0 -20 -2 -8 -16 10 -13 10 -17 -2 -25
-27 -17 -40 -10 -33 16 4 18 2 25 -8 25 -22 0 -29 -12 -17 -27 8 -8 8 -13 1
-13 -6 0 -12 6 -14 12 -4 10 -10 10 -32 0 -15 -6 -34 -12 -43 -12 -13 0 -13 3
-3 15 11 14 7 19 -12 16 -5 0 -8 6 -8 15 0 10 6 14 18 10 9 -3 49 3 87 14 91
25 95 24 95 -5z m445 -6 c9 -17 14 -34 10 -37 -8 -9 -45 36 -45 54 0 24 19 15
35 -17z m215 22 c0 -14 -41 -41 -52 -35 -5 3 2 14 14 24 26 21 38 25 38 11z
m-89 -27 c18 -19 30 -24 52 -20 33 7 77 -12 77 -32 0 -10 -8 -13 -25 -10 -25
5 -107 -5 -137 -17 -16 -6 -18 -1 -18 42 0 71 11 79 51 37z m569 -64 c-15 -53
-38 -80 -67 -80 -24 0 -25 1 -11 18 21 23 48 89 48 117 0 35 14 39 27 7 8 -21
9 -40 3 -62z m-803 45 c-4 -8 -2 -17 4 -21 5 -3 7 -14 4 -24 -3 -11 -1 -29 5
-40 9 -17 8 -25 -4 -39 -9 -10 -14 -25 -10 -35 3 -9 1 -16 -6 -16 -13 0 -79
-48 -97 -70 -9 -11 -16 -12 -29 -4 -10 6 -20 16 -22 22 -5 16 28 28 37 14 4
-7 17 -1 35 18 15 17 34 30 41 30 20 0 36 56 25 86 -7 16 -6 32 0 44 7 13 7
21 0 25 -16 10 -12 25 6 25 10 0 14 -6 11 -15z m-54 -12 c-3 -7 0 -13 6 -13
17 0 13 -28 -6 -38 -11 -7 -14 -15 -8 -28 15 -34 13 -54 -5 -54 -9 0 -25 -9
-35 -20 -9 -10 -33 -24 -52 -31 -28 -9 -32 -13 -22 -25 7 -8 9 -17 6 -21 -9
-8 -38 17 -32 27 9 15 -39 19 -55 5 -23 -21 -32 -19 -28 8 3 19 10 22 57 25
66 3 118 32 127 70 4 15 11 32 16 39 7 9 1 11 -27 6 -36 -6 -37 -5 -30 18 4
13 8 24 9 24 0 0 10 5 21 11 26 15 64 13 58 -3z m807 1 c0 -11 -5 -14 -16 -10
-9 3 -20 6 -25 6 -5 0 -9 5 -9 10 0 6 11 10 25 10 16 0 25 -6 25 -16z m-1373
-44 c19 -11 35 -15 38 -10 4 6 15 10 26 10 29 0 18 -24 -12 -29 -13 -1 -26 -6
-29 -11 -8 -11 -50 -22 -50 -13 0 5 5 14 11 20 13 13 2 36 -12 27 -13 -7 -39
14 -39 33 0 10 4 11 18 3 9 -6 31 -19 49 -30z m787 -16 c10 -74 8 -84 -15 -84
-11 0 -27 7 -36 15 -14 14 -17 14 -29 -2 -20 -27 -17 -36 11 -29 14 4 25 2 25
-4 0 -5 -7 -10 -15 -10 -8 0 -15 -4 -15 -8 0 -5 -11 -14 -25 -20 -17 -8 -25
-8 -25 -1 0 5 -10 3 -22 -5 -41 -29 -54 -12 -18 24 11 11 25 20 30 20 6 0 10
6 10 13 0 7 13 28 29 46 16 18 35 46 41 62 20 46 46 38 54 -17z m451 36 c6
-10 -15 -50 -27 -50 -5 0 -4 37 1 58 2 6 20 1 26 -8z m105 -1 c10 -7 11 -12 4
-15 -7 -3 -10 -14 -7 -24 4 -15 -2 -22 -22 -30 -48 -18 -62 16 -23 57 24 26
27 27 48 12z m-314 -13 c3 -8 14 -11 28 -9 19 4 26 -1 34 -24 6 -17 11 -21 11
-10 1 22 27 22 35 0 5 -11 10 -13 17 -6 13 13 59 4 66 -14 3 -8 13 -11 24 -8
24 8 41 -26 41 -78 -1 -39 12 -41 20 -2 3 13 8 4 15 -27 11 -52 64 -149 70
-131 3 7 -10 42 -28 78 -32 66 -35 98 -4 51 10 -14 24 -26 31 -26 24 0 21 5
-48 80 -16 18 -14 19 34 30 66 16 76 6 56 -55 -9 -25 -12 -47 -8 -50 4 -3 4
-24 -1 -47 -12 -63 -10 -145 5 -216 7 -35 9 -65 4 -68 -5 -3 2 -16 17 -29 30
-28 32 -64 6 -96 -18 -23 -20 -23 -39 -6 -14 13 -21 36 -25 85 -3 37 -1 70 4
73 5 3 6 26 3 52 -6 40 -10 47 -25 42 -13 -4 -19 -1 -19 8 0 9 5 17 10 19 11
3 -50 168 -62 168 -13 0 -9 -17 16 -75 14 -30 20 -55 15 -55 -13 0 -69 119
-69 147 0 12 -4 24 -10 28 -5 3 -7 21 -5 40 3 19 0 37 -5 40 -6 3 -10 -5 -10
-19 0 -33 -13 -39 -36 -18 -10 10 -27 16 -36 14 -9 -2 -22 6 -29 19 -11 22
-12 22 -26 3 -12 -16 -15 -17 -23 -4 -5 8 -10 21 -10 27 0 8 -10 11 -28 7 -24
-5 -29 -2 -40 28 -6 19 -12 37 -12 41 0 13 31 7 36 -7z m594 5 c0 -5 -6 -14
-14 -20 -16 -13 -32 2 -21 19 8 12 35 13 35 1z m-1470 -21 c15 -27 3 -45 -18
-28 -12 10 -16 11 -20 0 -5 -16 -75 -52 -102 -52 -35 0 -22 18 28 36 26 10 57
28 69 41 27 28 29 28 43 3z m43 7 c16 -11 16 -14 3 -32 -17 -23 -21 -21 -30
18 -7 30 1 34 27 14z m292 -69 c-13 -10 -33 -18 -44 -18 -18 0 -20 4 -15 25 4
15 2 25 -5 25 -6 0 -11 8 -11 18 1 15 2 15 15 -2 8 -11 18 -17 21 -13 4 4 2
13 -4 20 -24 29 1 24 33 -6 l33 -31 -23 -18z m-94 55 c-6 -10 -24 -34 -40 -53
-26 -31 -31 -33 -37 -17 -5 13 3 28 27 53 36 37 67 47 50 17z m567 11 c12 -4
22 -11 22 -16 0 -6 -10 -7 -22 -3 -13 3 -36 10 -53 15 l-30 8 30 1 c17 0 40
-2 53 -5z m-53 -22 c6 -4 10 -25 10 -47 0 -35 -3 -40 -22 -40 -31 0 -34 19 -5
23 l24 4 -22 23 c-27 29 -15 59 15 37z m-37 -46 c2 -9 -2 -16 -10 -16 -20 1
-51 28 -44 39 9 14 50 -3 54 -23z m123 7 c7 -18 6 -30 -1 -37 -7 -7 -10 -6
-10 3 0 8 -7 10 -20 6 -15 -5 -20 -2 -20 14 0 11 8 25 18 30 23 14 21 15 33
-16z m-824 -8 c3 -9 3 -19 -1 -22 -7 -7 -36 16 -36 28 0 15 30 10 37 -6z m-47
-12 c28 -24 25 -35 -7 -32 -55 4 -75 -1 -80 -20 -3 -11 -12 -22 -20 -26 -27
-10 -27 4 0 29 15 14 27 30 27 36 0 5 11 10 25 10 14 0 25 5 25 10 0 14 7 13
30 -7z m1503 -6 c-5 -7 -8 -21 -8 -31 0 -11 -6 -21 -12 -23 -17 -6 -17 49 -1
65 14 14 31 5 21 -11z m-1331 -49 c-6 -24 -10 -69 -9 -102 l1 -58 66 4 c63 5
94 16 133 47 30 24 40 1 22 -50 -9 -24 -19 -53 -22 -64 -4 -11 -16 -36 -29
-56 -12 -20 -27 -54 -33 -75 -6 -21 -19 -51 -28 -65 -10 -15 -30 -44 -44 -65
-15 -22 -34 -46 -44 -54 -20 -16 -88 -116 -98 -142 -3 -10 -11 -18 -17 -18
-14 0 -7 22 30 104 25 55 46 81 143 170 15 14 27 30 27 36 0 17 -122 -83 -149
-121 -23 -33 -23 -33 -17 -6 11 45 -7 30 -36 -31 -15 -31 -46 -96 -69 -144
-23 -49 -46 -88 -51 -88 -5 0 -21 -9 -35 -20 -37 -29 -88 -26 -109 5 -25 39
-10 79 42 115 25 16 47 30 48 30 2 0 6 -9 9 -20 3 -11 12 -20 21 -20 20 0 21
14 1 30 -22 18 -19 26 14 39 69 29 161 142 186 227 3 13 16 24 30 27 25 4 34
-6 15 -18 -13 -8 -13 -25 -1 -25 20 0 112 106 127 147 18 47 13 64 -14 45 -9
-7 -35 -21 -58 -31 -43 -20 -62 -47 -45 -64 7 -7 13 -5 17 7 6 14 52 46 69 46
13 0 3 -22 -26 -55 -24 -27 -39 -35 -66 -35 l-35 0 8 53 c8 55 8 69 -1 132 -3
22 -7 76 -8 120 -2 62 1 83 13 92 25 19 34 -2 22 -49z m764 37 c-3 -9 1 -18 9
-21 24 -9 19 -37 -5 -29 -14 5 -20 2 -20 -9 0 -20 24 -20 55 0 15 10 22 21 18
31 -5 13 -2 15 13 8 10 -4 29 -10 40 -12 15 -3 24 -15 28 -35 6 -30 7 -31 26
-13 19 18 20 17 20 -8 0 -14 5 -29 10 -32 15 -9 12 -35 -4 -35 -7 0 -16 9 -19
20 -3 11 -13 20 -24 20 -11 0 -24 12 -31 30 -8 17 -18 30 -23 30 -14 0 -11
-16 6 -30 8 -7 15 -16 15 -21 0 -5 -7 -9 -15 -9 -8 0 -15 7 -15 15 0 9 -9 15
-22 15 -35 0 -98 -20 -98 -30 0 -14 -27 -12 -36 1 -4 7 3 19 16 29 14 11 20
22 15 30 -4 7 -2 16 6 21 11 6 11 11 1 21 -19 19 -14 28 14 28 19 0 25 -4 20
-15z m-1056 -5 c0 -6 -7 -13 -15 -16 -8 -4 -12 -10 -9 -15 10 -16 -25 -21 -41
-6 -19 19 -19 28 -1 21 8 -3 20 2 27 10 16 18 39 21 39 6z m820 -4 c0 -21 -20
-30 -33 -17 -9 9 -8 14 3 21 21 14 30 12 30 -4z m144 -2 c23 -9 20 -34 -4 -34
-13 0 -20 -7 -20 -20 0 -11 -4 -20 -10 -20 -5 0 -10 7 -10 15 0 8 -5 15 -11
15 -6 0 -9 -6 -6 -14 9 -23 -18 -39 -33 -21 -18 22 13 68 41 60 13 -4 19 -2
19 9 0 17 9 20 34 10z m-815 -30 c2 -2 -6 -23 -18 -47 -11 -24 -21 -49 -21
-55 0 -7 -5 -12 -10 -12 -17 0 -65 27 -80 45 -11 13 -9 19 10 40 13 14 34 25
47 25 13 0 23 5 23 11 0 9 37 4 49 -7z m632 -14 c24 -20 24 -20 5 -35 -27 -21
-39 -19 -31 6 6 18 4 20 -14 14 -15 -4 -21 -2 -21 8 0 32 28 36 61 7z m-449
-27 c7 -16 23 -40 36 -54 35 -39 10 -45 -32 -8 -26 22 -36 39 -36 60 0 37 17
37 32 2z m-362 -3 c0 -11 -7 -20 -15 -20 -15 0 -21 21 -8 33 12 13 23 7 23
-13z m440 -5 c7 -9 10 -18 7 -21 -7 -8 -47 14 -47 26 0 15 26 12 40 -5z m297
-5 c-3 -12 1 -24 11 -29 9 -5 13 -13 9 -17 -4 -5 -17 -2 -29 5 -14 9 -23 10
-31 2 -17 -17 8 -35 48 -35 34 0 47 -10 23 -18 -6 -2 -9 -12 -5 -21 5 -15 9
-15 38 0 30 15 31 17 14 29 -17 13 -17 14 1 20 10 4 27 14 37 22 27 24 123 21
175 -4 41 -21 47 -19 43 15 -2 7 4 11 11 9 7 -3 14 -14 16 -26 3 -22 1 -23
-48 -26 -8 -1 -15 -8 -15 -16 0 -8 8 -14 18 -14 9 1 17 -2 17 -7 0 -5 -5 -9
-11 -9 -6 0 -9 -9 -6 -20 4 -16 -2 -24 -28 -34 -18 -8 -36 -19 -39 -25 -13
-20 -27 -11 -24 15 2 15 -3 29 -9 31 -8 3 -13 -4 -13 -16 0 -16 -6 -21 -27
-21 -32 1 -75 30 -55 37 15 6 16 33 2 33 -6 0 -13 -7 -16 -15 -4 -8 -17 -15
-30 -15 -30 0 -30 -1 1 -50 23 -37 29 -40 70 -40 35 0 43 3 39 15 -10 25 5 17
42 -22 32 -34 34 -38 18 -50 -9 -7 -22 -9 -27 -6 -8 5 -7 8 1 11 19 6 14 22
-8 22 -11 0 -25 -9 -32 -20 -18 -28 -31 -25 -24 6 5 19 3 25 -6 21 -7 -2 -12
-16 -11 -31 2 -28 -14 -36 -23 -11 -3 8 -28 31 -55 51 -47 34 -68 71 -33 57
14 -5 14 -1 -2 28 -17 31 -19 32 -22 12 -4 -27 -14 -29 -32 -8 -9 11 -9 19 -2
28 7 8 7 17 -2 30 -17 22 -22 22 -29 -4 -4 -15 -11 -19 -26 -14 -13 4 -23 0
-30 -12 -8 -16 -10 -16 -16 -2 -8 22 10 66 35 79 11 6 20 19 20 30 0 26 27 50
57 50 20 0 24 -4 20 -20z m-87 -5 c0 -9 -9 -19 -20 -23 -11 -4 -28 -23 -38
-42 -11 -19 -24 -36 -30 -38 -19 -6 -14 26 6 38 16 9 16 11 -1 21 -18 10 -18
12 -1 30 11 12 24 17 36 13 10 -3 18 -1 18 5 0 6 7 11 15 11 8 0 15 -7 15 -15z
m210 -6 c0 -5 -5 -9 -11 -9 -6 0 -22 -9 -36 -20 -14 -11 -30 -20 -36 -20 -6 0
-2 9 8 20 10 11 24 20 30 20 7 0 16 7 19 16 6 15 26 11 26 -7z m-813 -69 c12
-16 13 -24 4 -29 -6 -4 -9 -15 -5 -24 7 -18 24 -23 24 -7 0 6 7 10 15 10 19 0
19 -24 0 -40 -21 -17 -52 11 -61 56 -3 18 -17 42 -30 55 -13 12 -24 26 -24 31
0 13 60 -28 77 -52z m1158 39 c9 -13 -3 -59 -15 -59 -16 0 -72 -58 -66 -69 4
-5 -3 -15 -15 -21 -25 -14 -36 -6 -20 14 10 11 9 16 -5 24 -16 9 -15 12 7 40
14 18 38 34 57 38 22 4 32 12 32 25 0 21 15 25 25 8z m-1085 -43 c0 -19 -17
-29 -37 -22 -12 5 -13 9 -3 21 16 19 40 19 40 1z m1192 -46 c-6 -11 -12 -28
-11 -37 0 -15 2 -14 11 5 21 43 40 20 57 -71 8 -42 7 -64 -1 -82 -12 -27 -3
-49 11 -26 5 7 11 -17 15 -61 4 -40 13 -76 19 -80 6 -4 8 -10 4 -14 -3 -4 -13
-1 -22 6 -12 10 -18 10 -32 -1 -15 -13 -16 -11 -10 21 3 19 9 50 13 68 4 19 3
32 -4 32 -5 0 -13 -16 -16 -35 -7 -38 -17 -43 -36 -20 -10 13 -10 19 2 33 11
12 17 48 20 117 4 74 3 93 -5 75 -8 -20 -11 -22 -14 -7 -3 9 -7 17 -10 17 -2
0 -28 -24 -57 -52 -28 -29 -68 -64 -89 -78 -21 -14 -47 -32 -58 -41 -19 -16
-59 -15 -59 1 0 20 44 60 66 60 16 0 37 12 56 33 16 17 55 58 86 90 44 44 54
59 43 66 -7 5 -10 14 -6 21 5 9 11 8 23 -4 14 -13 14 -20 4 -36z m-52 -10 c0
-5 -7 -10 -15 -10 -8 0 -15 -7 -15 -15 0 -17 -25 -20 -35 -5 -12 19 -22 10
-17 -16 5 -29 -28 -67 -51 -58 -14 5 -117 -91 -117 -108 0 -5 -9 -8 -20 -8
-28 0 -25 27 8 56 l27 24 -28 23 c-33 27 -26 41 10 22 22 -11 29 -11 47 1 12
7 38 16 57 18 29 3 34 7 31 28 -3 33 19 51 57 45 17 -3 33 -1 37 4 7 12 24 12
24 -1z m-594 -86 c97 -98 134 -118 202 -108 26 4 50 12 54 18 4 6 10 7 15 3 4
-4 3 -16 -3 -25 -16 -25 -116 -27 -168 -3 -23 10 -71 49 -109 86 -37 37 -70
65 -74 61 -4 -4 24 -36 61 -71 71 -67 75 -89 6 -34 -60 48 -121 125 -114 143
13 33 47 15 130 -70z m52 34 c7 -7 12 -20 12 -29 0 -16 -2 -16 -30 -3 -32 16
-38 29 -17 37 19 8 22 8 35 -5z m155 -12 c3 3 11 3 17 -1 9 -6 9 -9 -1 -15
-16 -10 -61 18 -52 33 4 6 11 4 18 -6 7 -9 15 -14 18 -11z m184 -1 c-4 -8 -17
-15 -29 -15 l-23 0 25 20 c27 20 36 19 27 -5z m-507 -24 c19 -15 22 -22 12
-33 -6 -8 -9 -18 -5 -21 3 -4 1 -7 -5 -7 -15 0 -42 40 -42 62 0 23 9 22 40 -1z
m750 -20 c0 -22 -16 -36 -24 -22 -8 12 3 41 15 41 5 0 9 -9 9 -19z m360 -21
c19 -17 28 -30 21 -30 -21 0 -71 33 -71 47 0 19 11 15 50 -17z m-1142 -15 c30
-34 28 -39 -8 -18 -16 9 -30 23 -30 30 0 20 14 15 38 -12z m267 -6 c11 -17 -1
-22 -24 -9 -12 6 -21 17 -21 26 0 11 4 12 19 4 11 -5 23 -15 26 -21z m-187 10
c-6 -12 25 -39 46 -39 21 -1 21 -1 2 -15 -25 -19 -26 -19 -54 5 -17 14 -22 25
-17 40 4 12 11 20 17 18 5 -2 8 -6 6 -9z m692 -21 c0 -5 -7 -11 -15 -14 -19
-8 -20 -24 -1 -24 7 0 16 -11 18 -25 3 -16 1 -25 -7 -25 -7 0 -15 -21 -18 -50
-6 -50 -33 -110 -50 -110 -12 0 -87 62 -87 72 0 17 28 7 46 -17 21 -28 34 -31
52 -13 15 15 -3 38 -30 38 -18 0 -19 4 -13 38 3 20 17 48 31 63 29 31 31 43 4
29 -17 -9 -20 -8 -20 11 0 16 5 20 20 16 12 -3 20 0 20 8 0 7 11 13 25 13 14
0 25 -5 25 -10z m-755 -38 c22 -17 48 -33 58 -36 30 -11 19 -33 -20 -39 -60
-10 -68 -14 -55 -27 9 -9 18 -9 37 0 14 7 33 12 42 12 9 0 21 7 28 17 8 10 14
12 19 5 12 -19 -64 -56 -126 -60 -56 -4 -58 -4 -58 20 0 35 22 138 29 138 3
-1 24 -14 46 -30z m-79 -26 c-3 -9 -9 -28 -12 -42 -3 -15 -10 -39 -16 -55 -6
-16 -7 -32 -1 -40 5 -6 8 -28 8 -47 0 -28 -4 -34 -18 -32 -16 3 -18 -3 -13
-63 8 -96 69 -219 147 -297 62 -63 192 -133 258 -140 46 -4 42 16 -6 24 -21 3
-68 18 -104 32 -144 58 -279 250 -279 396 0 26 3 31 10 20 5 -8 10 -26 10 -40
1 -29 28 -110 54 -160 24 -44 120 -146 166 -175 48 -30 126 -55 170 -55 35 0
38 -2 43 -37 4 -20 5 -38 3 -40 -1 -2 -27 -3 -57 -4 -64 -1 -98 11 -151 53
-21 17 -60 41 -87 54 -58 29 -136 136 -171 234 -29 82 -32 247 -6 298 9 17 16
37 15 44 0 7 -5 2 -10 -11 -12 -31 -23 -20 -15 14 5 18 12 25 21 21 10 -3 16
5 21 29 3 19 11 35 16 35 6 0 7 -7 4 -16z m192 1 c12 -3 22 -11 22 -17 0 -14
-51 -1 -70 19 -16 16 -16 16 48 -2z m172 -15 c0 -5 -9 -10 -19 -10 -23 0 -31
-19 -18 -41 19 -30 1 -47 -57 -54 -31 -4 -56 -12 -56 -18 0 -6 17 -7 46 -3 41
5 45 4 39 -12 -4 -9 -12 -38 -18 -64 -7 -27 -15 -48 -19 -48 -21 0 -57 45 -56
70 1 15 -6 38 -16 51 -26 37 -21 52 14 46 33 -7 38 0 14 17 -21 16 -9 40 29
59 36 18 117 23 117 7z m145 -1 c22 -11 128 -10 135 2 5 6 15 9 24 6 49 -19
-19 -58 -84 -48 -62 10 -195 4 -220 -9 -31 -17 -26 14 7 38 19 14 41 19 78 18
27 -1 55 -4 60 -7z m205 -33 c0 -19 -15 -28 -68 -42 -38 -10 -46 -9 -65 7 -22
18 -22 18 24 13 39 -5 50 -3 65 14 22 24 44 28 44 8z m135 -103 c-10 -115 -24
-202 -40 -253 -14 -41 -31 -62 -135 -164 -8 -8 -26 -32 -40 -52 -29 -44 -87
-104 -101 -104 -20 0 -8 52 18 74 15 13 23 28 19 34 -11 18 -26 14 -26 -7 0
-28 -17 -35 -25 -10 -4 11 -5 22 -3 23 40 27 64 40 70 38 11 -3 71 78 96 128
12 25 26 52 31 60 38 65 103 222 115 278 4 17 12 32 18 32 6 0 7 -28 3 -77z
m240 1 c22 -92 19 -249 -6 -304 -25 -56 -56 -90 -82 -90 -25 0 -65 43 -63 67
0 12 -7 19 -22 21 -13 2 -21 9 -19 15 2 7 12 11 21 9 27 -5 43 15 38 47 -3 22
4 39 27 68 54 68 98 201 71 218 -6 3 -7 11 -4 17 11 17 24 -6 39 -68z m-601
47 c9 -14 -4 -41 -20 -41 -8 0 -14 10 -14 25 0 25 23 35 34 16z m-64 -21 c0
-11 5 -20 10 -20 17 0 11 -37 -6 -44 -9 -4 -15 -9 -12 -11 9 -10 38 7 38 21 0
17 12 18 26 4 8 -8 24 2 53 30 24 23 45 39 48 36 12 -12 10 -76 -3 -76 -7 0
-14 5 -16 12 -9 26 -38 -2 -38 -37 0 -37 -18 -48 -27 -16 -3 12 -11 17 -19 14
-9 -3 -12 -13 -8 -29 5 -19 2 -24 -14 -24 -12 0 -24 -4 -27 -10 -4 -6 6 -10
24 -10 16 0 31 5 33 12 6 17 38 2 38 -18 0 -12 -6 -15 -25 -10 -14 4 -25 2
-25 -3 0 -5 -14 -8 -32 -6 -25 2 -32 7 -34 29 -1 14 1 26 5 26 4 0 16 7 27 16
19 15 19 15 -1 10 -21 -5 -65 24 -65 43 0 6 9 11 19 11 25 0 35 27 14 38 -9 5
-13 14 -9 21 11 18 26 13 26 -9z m240 11 c0 -12 -29 -35 -36 -28 -11 10 5 37
21 37 8 0 15 -4 15 -9z m-524 -11 c21 0 44 -54 44 -105 0 -42 1 -45 20 -35 15
8 21 6 30 -11 7 -11 8 -24 4 -27 -4 -4 -9 -1 -11 6 -7 19 -23 14 -23 -7 0 -26
17 -36 36 -20 19 16 26 7 30 -36 4 -50 -17 -55 -61 -14 -26 25 -35 42 -35 66
0 18 -4 33 -10 33 -5 0 -10 -4 -10 -8 0 -5 -18 -18 -40 -31 -22 -12 -45 -31
-50 -42 -15 -27 -27 -16 -35 32 -6 36 -4 44 21 70 18 18 36 28 46 25 26 -6 61
25 53 47 -8 18 -40 23 -50 7 -13 -22 -35 -10 -35 19 0 30 19 43 48 35 8 -2 20
-4 28 -4z m904 0 c0 -15 -60 -164 -71 -174 -15 -16 -22 2 -11 32 5 16 6 35 2
43 -5 8 -3 33 3 56 9 34 16 43 36 46 14 2 29 5 34 6 4 0 7 -3 7 -9z m-1134
-96 c-3 -49 -1 -104 5 -135 13 -61 6 -70 -56 -68 -22 1 -53 -2 -68 -6 -34 -9
-42 -3 -28 23 8 15 8 21 0 24 -14 5 -2 88 12 88 4 0 15 13 24 30 8 16 20 29
26 27 6 -1 17 16 25 37 17 47 43 78 57 69 6 -4 7 -37 3 -89z m129 75 c-4 -12
-1 -32 6 -45 10 -20 10 -27 -6 -44 -29 -32 -35 -24 -35 45 0 59 2 65 21 65 16
0 19 -4 14 -21z m-270 -39 c-23 -44 -30 -31 -9 16 9 22 18 34 21 27 2 -6 -3
-26 -12 -43z m590 20 c0 -8 -10 -16 -22 -18 -22 -3 -32 16 -16 32 12 11 38 2
38 -14z m326 6 c-21 -25 -2 -48 37 -44 42 3 49 -9 27 -51 -21 -41 -48 -40 -91
3 -38 38 -42 60 -17 88 20 22 62 26 44 4z m269 7 c-1 -30 -90 -73 -90 -44 0
15 51 51 71 51 11 0 19 -3 19 -7z m-1640 -21 c0 -15 -41 -32 -65 -26 -29 7
-33 21 -8 26 37 7 73 7 73 0z m1040 -37 c0 -8 -7 -15 -15 -15 -8 0 -15 -4 -15
-10 0 -5 -4 -10 -10 -10 -17 0 -11 38 8 43 30 8 32 7 32 -8z m228 -2 c5 -17
-26 -29 -40 -15 -6 6 -7 15 -3 22 9 14 37 9 43 -7z m-845 -105 c-2 -51 -13
-124 -24 -162 -17 -59 -29 -77 -75 -122 -55 -54 -199 -134 -240 -134 -34 0
-85 39 -101 78 -19 46 -13 123 15 184 11 24 47 71 80 106 61 62 93 81 72 43
-14 -27 -14 -26 21 -66 38 -43 71 -45 123 -10 54 37 46 7 -19 -69 -60 -71 -58
-101 3 -39 40 41 79 115 132 251 7 17 14 32 15 32 1 0 0 -42 -2 -92z m862 55
c-8 -42 -33 -108 -39 -102 -2 2 -6 20 -10 40 -6 31 -4 37 14 42 11 3 20 9 19
14 -4 22 2 43 12 43 8 0 9 -12 4 -37z m341 13 c-3 -12 -6 -40 -6 -63 0 -36 -3
-43 -19 -43 -11 0 -22 4 -26 10 -3 5 -12 7 -20 3 -12 -4 -15 3 -15 30 0 62 13
82 55 83 32 0 36 -2 31 -20z m-626 -31 c0 -9 6 -12 15 -9 10 4 15 0 15 -10 0
-24 -22 -29 -56 -11 -19 10 -23 15 -11 15 10 0 17 8 17 21 0 11 5 17 10 14 6
-3 10 -13 10 -20z m351 -13 l31 -29 -34 -26 c-18 -15 -45 -39 -59 -54 -22 -21
-33 -25 -59 -20 -26 6 -35 2 -50 -15 -13 -17 -29 -23 -62 -23 -24 -1 -50 -5
-58 -10 -9 -5 -15 -4 -18 3 -2 7 -16 19 -32 27 -21 11 -30 24 -35 55 -9 50 -4
56 28 35 13 -8 35 -18 48 -22 40 -10 123 -10 140 1 22 12 53 0 45 -19 -12 -32
15 -13 28 20 10 23 22 35 35 35 27 0 38 20 17 32 -18 10 -22 38 -5 38 5 0 24
-13 40 -28z m-218 -39 c12 -12 -15 -33 -42 -32 -15 0 -20 3 -11 6 8 3 19 12
23 19 9 15 20 18 30 7z m-308 -51 c-30 -44 -32 -68 -5 -84 22 -14 27 -48 7
-48 -7 0 -28 20 -45 45 -31 44 -31 47 -17 75 14 28 62 61 77 53 5 -2 -3 -21
-17 -41z m43 -24 c-2 -22 -9 -34 -20 -36 -20 -4 -24 19 -8 49 16 30 32 22 28
-13z m702 8 c0 -27 -15 -42 -25 -26 -8 13 3 50 16 50 5 0 9 -11 9 -24z m50 -2
c0 -9 -7 -14 -17 -12 -25 5 -28 28 -4 28 12 0 21 -6 21 -16z m-274 -9 c4 -8 3
-22 0 -31 -5 -13 -9 -14 -21 -4 -8 7 -15 21 -15 31 0 23 28 25 36 4z m-436
-25 c0 -5 7 -10 16 -10 10 0 14 -6 11 -15 -4 -8 -2 -17 3 -20 19 -12 10 -35
-11 -32 -12 1 -24 -4 -26 -10 -3 -7 2 -13 11 -13 10 0 16 -9 16 -25 0 -30 -15
-33 -30 -5 -6 11 -16 18 -22 14 -29 -18 72 -68 161 -80 54 -7 71 -18 45 -28
-20 -8 -89 8 -145 33 -48 21 -111 70 -92 71 7 0 10 7 7 15 -4 11 1 15 17 15
18 0 20 3 11 12 -15 15 -15 29 -2 62 9 25 30 36 30 16z m-276 -17 c10 -25 -10
-39 -23 -15 -10 19 -6 32 10 32 4 0 10 -8 13 -17z m667 -4 c8 -16 8 -27 -2
-45 -7 -14 -17 -23 -23 -21 -15 5 -24 49 -14 70 12 23 25 22 39 -4z m-794 -23
c-8 -19 -37 -21 -37 -3 0 7 5 18 12 25 15 15 33 -1 25 -22z m43 -1 c0 -7 -7
-15 -15 -19 -15 -5 -22 24 -9 37 9 9 24 -2 24 -18z m48 13 c17 -17 15 -28 -7
-28 -22 0 -35 15 -26 30 8 13 18 13 33 -2z m405 -1 c8 -22 -4 -67 -19 -67 -8
0 -14 -7 -14 -15 0 -8 -4 -15 -10 -15 -5 0 -10 7 -10 15 0 8 5 15 10 15 6 0
10 11 10 24 0 46 21 74 33 43z m507 -17 c0 -19 -20 -27 -33 -13 -8 7 11 33 24
33 5 0 9 -9 9 -20z m-286 -3 c21 -15 27 -78 9 -84 -7 -3 -18 8 -24 24 l-11 28
-10 -27 c-5 -16 -14 -28 -19 -28 -12 0 -12 27 1 35 6 3 10 16 10 29 0 37 14
45 44 23z m-176 -26 c4 -27 -13 -50 -27 -35 -13 12 -1 66 13 61 6 -2 13 -14
14 -26z m107 -10 c-7 -32 -25 -43 -25 -15 0 19 20 57 27 51 3 -3 2 -19 -2 -36z
m-700 18 c4 -6 5 -13 2 -16 -8 -7 -47 7 -47 18 0 13 37 11 45 -2z m655 -8 c0
-11 3 -26 6 -34 5 -15 -45 -71 -55 -61 -3 3 1 9 8 13 9 6 10 11 2 15 -10 6 -8
32 5 74 6 19 34 14 34 -7z m-604 -2 c10 -17 -13 -36 -27 -22 -12 12 -4 33 11
33 5 0 12 -5 16 -11z m149 -9 c0 -8 -8 -16 -17 -18 -13 -2 -18 3 -18 18 0 15
5 20 18 18 9 -2 17 -10 17 -18z m-49 -28 c1 -27 -2 -32 -20 -32 -12 0 -26 -4
-32 -10 -12 -12 -39 4 -29 20 4 6 13 9 20 6 8 -3 19 1 25 9 8 10 8 14 -1 17
-18 6 0 30 19 26 11 -2 17 -14 18 -36z m904 18 c0 -13 -7 -20 -20 -20 -25 0
-25 9 -2 26 22 17 22 17 22 -6z m123 -5 c2 -12 -48 -19 -69 -11 -9 3 -13 10
-9 15 7 13 75 8 78 -4z m-1173 -21 c0 -8 -9 -14 -20 -14 -22 0 -26 10 -8 28
13 13 28 7 28 -14z m230 5 c0 -16 -27 -39 -44 -39 -23 0 -30 19 -9 27 10 3 22
13 26 20 9 14 27 9 27 -8z m769 -5 c3 -3 0 -9 -7 -16 -8 -8 -15 -7 -26 5 -9 9
-16 18 -16 22 0 6 40 -3 49 -11z m-949 -15 c0 -24 -23 -21 -28 4 -2 10 3 17
12 17 10 0 16 -9 16 -21z m528 -17 c3 -17 -2 -22 -17 -22 -14 0 -21 6 -21 18
0 38 33 41 38 4z m532 -7 c-11 -14 -9 -15 20 -13 19 2 35 -2 37 -9 3 -9 -5
-13 -24 -13 -16 0 -34 -5 -40 -11 -17 -17 -31 -2 -25 28 6 37 22 57 35 44 7
-7 6 -15 -3 -26z m75 25 c8 -13 -20 -24 -42 -16 -15 6 -15 8 -3 16 20 13 37
12 45 0z m-241 -6 c20 -8 9 -34 -14 -34 -10 0 -20 -6 -23 -12 -2 -7 -8 -10
-12 -6 -4 4 0 14 9 23 9 9 16 21 16 26 0 11 3 11 24 3z m102 -8 c16 -17 19
-36 4 -36 -5 0 -10 5 -10 11 0 6 -7 9 -15 5 -10 -4 -15 1 -15 14 0 23 16 26
36 6z m-1092 -12 c5 -13 9 -14 21 -4 8 7 20 8 27 4 7 -5 21 -7 32 -5 11 1 17
-2 14 -10 -5 -14 -76 -21 -84 -8 -2 5 -11 6 -18 3 -16 -6 -30 11 -21 26 9 15
22 12 29 -6z m314 -7 c3 -12 -4 -17 -22 -17 -28 0 -33 9 -14 28 15 15 32 10
36 -11z m441 -4 c7 -16 15 -66 18 -112 4 -68 3 -83 -8 -79 -10 3 -16 30 -20
87 -4 45 -9 85 -13 88 -6 6 -11 -44 -7 -84 1 -13 -3 -23 -9 -23 -10 0 -11 6
-15 93 -2 38 0 47 11 43 8 -3 14 -1 14 4 0 20 17 9 29 -17z m-562 -53 c0 -58
-2 -70 -16 -70 -14 0 -14 -2 -1 -10 10 -6 11 -13 5 -19 -6 -6 -16 -7 -24 -2
-11 7 -11 16 -2 42 6 19 9 53 7 76 -3 44 0 53 19 53 7 0 11 -25 12 -70z m849
59 c10 -17 -13 -36 -27 -22 -12 12 -4 33 11 33 5 0 12 -5 16 -11z m-896 -24
c0 -8 -9 -15 -20 -15 -20 0 -26 11 -13 23 12 13 33 7 33 -8z m100 -5 c0 -11
-7 -20 -15 -20 -8 0 -15 9 -15 20 0 11 7 20 15 20 8 0 15 -9 15 -20z m784 -33
c15 -23 -1 -33 -22 -14 -10 10 -26 17 -35 17 -20 0 -22 11 -5 28 13 13 44 -2
62 -31z m66 11 c0 -12 -38 -10 -45 2 -12 19 5 30 25 17 11 -6 20 -15 20 -19z
m-1143 7 c-6 -15 9 -29 30 -30 14 0 14 -3 5 -37 l-5 -22 -8 22 c-5 12 -13 22
-18 22 -6 0 -8 -7 -5 -15 4 -8 1 -15 -5 -15 -6 0 -11 7 -11 15 0 8 -4 15 -8
15 -5 0 -9 14 -9 30 0 23 5 30 20 30 13 0 17 -5 14 -15z m973 1 c0 -8 7 -16
15 -20 16 -6 21 -36 6 -36 -16 0 -41 31 -41 51 0 10 5 19 10 19 6 0 10 -6 10
-14z m-861 -2 c30 -6 31 -8 26 -45 -4 -24 -2 -39 5 -39 5 0 10 7 10 15 0 8 6
15 14 15 10 0 14 -11 13 -35 -1 -19 -3 -35 -5 -35 -2 0 -17 9 -32 20 -20 14
-30 31 -32 53 -2 26 -7 32 -27 32 -13 0 -26 6 -28 13 -5 13 9 15 56 6z m236
-24 c0 -13 -6 -25 -12 -27 -16 -6 -27 21 -19 43 9 23 31 11 31 -16z m905 11
c0 -11 -29 -23 -40 -16 -5 3 -11 1 -15 -5 -9 -15 -48 -13 -42 3 2 6 13 12 25
12 11 0 24 4 28 8 10 10 44 9 44 -2z m-965 -42 c1 -45 -4 -59 -21 -59 -17 0
-18 22 -2 38 8 8 8 15 -1 26 -14 17 -6 39 12 33 7 -2 12 -19 12 -38z m-195 1
c0 -11 -7 -20 -15 -20 -15 0 -21 21 -8 33 12 13 23 7 23 -13z m1048 -13 c4
-37 -13 -34 -27 4 -9 27 -8 30 7 27 10 -2 18 -14 20 -31z m139 21 c-2 -7 -14
-13 -26 -13 -12 0 -26 -7 -30 -14 -5 -7 -14 -10 -20 -7 -18 11 -13 26 8 26 11
0 23 5 26 10 9 15 47 12 42 -2z m-783 -4 c21 -8 20 -27 -3 -55 -16 -19 -21
-21 -34 -11 -11 10 -17 10 -22 1 -4 -6 -2 -15 6 -20 11 -6 10 -12 -5 -28 -24
-27 -34 -26 -38 2 -2 12 -13 26 -25 32 -13 5 -23 12 -23 15 0 10 75 55 93 56
10 1 20 4 24 8 8 7 8 7 27 0z m-864 -19 c10 -12 1 -27 -48 -87 -57 -68 -73
-98 -37 -68 20 16 19 10 -4 -37 -18 -35 -51 -132 -51 -148 0 -4 7 -5 15 -1 29
11 15 -27 -27 -73 -57 -62 -62 -63 -54 -5 9 66 36 134 52 134 9 0 14 11 14 30
0 18 6 33 15 36 18 7 20 25 3 22 -31 -7 11 108 63 173 34 43 41 46 59 24z
m259 -11 c6 -15 10 -29 7 -31 -6 -6 -46 35 -46 47 0 20 27 9 39 -16z m1059 17
c9 -5 31 -14 47 -21 17 -7 46 -21 65 -31 42 -21 107 -13 182 24 26 13 50 22
53 19 14 -14 1 -34 -37 -59 -35 -22 -55 -27 -113 -28 -38 -1 -81 3 -95 10 -28
13 -79 14 -97 2 -7 -5 -13 -16 -13 -25 0 -29 -17 -49 -31 -35 -17 17 -3 60 23
67 23 6 23 7 3 18 -24 14 -44 39 -45 56 0 14 32 16 58 3z m156 -17 c8 -22 8
-24 -8 -24 -18 0 -29 16 -21 30 9 15 22 12 29 -6z m-1234 -30 c51 -38 88 -57
104 -51 6 2 -7 12 -29 21 -37 16 -38 18 -21 28 15 8 21 8 24 0 5 -15 23 -16
20 -1 -5 21 23 21 29 0 6 -24 14 -26 31 -9 7 7 12 8 12 3 0 -4 9 0 20 10 17
15 24 16 46 6 22 -10 25 -16 20 -41 -5 -26 -2 -31 19 -36 24 -6 65 -2 133 12
26 5 32 3 32 -10 0 -9 5 -16 10 -16 13 0 13 13 -2 28 -9 9 -6 14 13 21 27 10
34 6 43 -26 6 -19 1 -25 -30 -38 -42 -17 -131 -20 -136 -4 -3 9 -53 17 -136
20 -13 1 -31 -6 -41 -15 -22 -20 -32 -20 -25 -1 4 8 2 15 -4 15 -5 0 -12 -7
-16 -15 -6 -18 -50 -20 -95 -4 -36 13 -37 16 -15 40 9 10 13 23 9 28 -9 16
-25 13 -25 -5 0 -10 -7 -14 -22 -12 -39 5 -64 89 -26 87 7 0 33 -16 58 -35z
m720 -25 c0 -27 -13 -23 -33 10 -23 39 -21 44 8 25 14 -9 25 -25 25 -35z
m-886 32 c3 -5 -7 -14 -23 -21 -31 -12 -58 -58 -82 -138 -11 -39 -11 -44 7
-56 10 -8 20 -19 20 -25 1 -6 2 -15 3 -21 2 -17 19 -11 53 20 38 35 48 38 41
9 -6 -21 -58 -50 -117 -65 l-28 -7 7 42 c4 27 3 41 -4 41 -6 0 -11 -12 -12
-27 -2 -58 -4 -66 -16 -70 -18 -6 -16 21 7 113 24 91 43 136 77 182 23 31 56
42 67 23z m1168 -8 c13 -12 18 -30 18 -68 0 -54 -16 -75 -39 -52 -12 12 -16
137 -4 137 3 0 15 -7 25 -17z m-1101 -14 c16 -32 -25 -71 -77 -73 -53 -1 -51
19 6 60 54 39 56 40 71 13z m536 -9 c-13 -21 -42 -27 -52 -10 -4 6 5 10 19 10
14 0 25 3 25 8 -3 16 1 23 11 17 6 -4 5 -13 -3 -25z m283 -69 c0 -8 -6 -11
-16 -7 -9 3 -19 6 -24 6 -4 0 -17 14 -28 32 -16 25 -18 36 -10 46 10 11 18 6
44 -25 19 -21 33 -44 34 -52z m180 66 c0 -14 9 -26 23 -32 24 -11 33 -62 10
-57 -7 1 -13 -2 -13 -8 0 -5 -7 -10 -15 -10 -8 0 -15 -4 -15 -10 0 -5 -7 -10
-16 -10 -9 0 -23 -8 -30 -17 -17 -25 -30 -8 -16 22 6 14 7 27 2 30 -5 3 -11
-4 -15 -15 -7 -22 -43 -46 -53 -35 -4 3 -1 9 5 13 7 4 12 25 11 47 0 82 44
127 73 74 11 -21 0 -38 -24 -39 -5 0 -7 -6 -4 -12 2 -7 11 -12 21 -10 11 2 16
-4 16 -23 0 -15 4 -24 10 -20 6 3 10 19 10 35 0 15 6 31 13 34 10 5 10 7 0 12
-15 7 -17 54 -3 54 6 0 10 -10 10 -23z m-132 -21 c2 -15 0 -35 -3 -44 -6 -15
-8 -15 -15 3 -5 11 -9 33 -9 48 -1 37 23 31 27 -7z m-399 8 c9 -9 -9 -15 -47
-17 -44 -1 -58 5 -47 23 6 10 82 5 94 -6z m1049 -54 c-4 -60 -22 -71 -26 -16
-4 43 2 66 18 66 7 0 10 -19 8 -50z m-779 18 c18 -29 24 -90 8 -85 -7 2 -18
18 -26 35 -15 33 -31 43 -31 19 0 -7 5 -18 12 -25 9 -9 9 -15 1 -23 -8 -8 -15
-4 -27 12 -22 32 -20 54 7 72 30 22 40 21 56 -5z m-701 -4 c-5 -26 -56 -60
-69 -47 -8 8 -3 18 18 37 32 29 56 34 51 10z m1188 -6 c-3 -13 -6 -35 -6 -50
0 -33 -15 -36 -30 -7 -17 30 -3 79 22 79 16 0 19 -5 14 -22z m64 -12 c0 -34
-10 -56 -25 -56 -20 0 -26 14 -19 49 8 39 44 45 44 7z m57 13 c11 -11 -2 -85
-19 -104 -15 -16 -28 17 -22 55 10 63 18 72 41 49z m126 -36 c3 -26 1 -58 -4
-72 -9 -23 -11 -23 -26 -8 -10 10 -18 35 -19 64 -2 56 1 63 25 63 14 0 20 -10
24 -47z m-68 18 c9 -30 -5 -72 -24 -69 -9 2 -16 9 -15 16 1 6 2 26 3 42 1 34
26 41 36 11z m-1327 -4 c8 -9 4 -24 -16 -55 -21 -32 -33 -42 -54 -42 -39 0
-36 21 9 70 41 44 46 46 61 27z m-198 -1 c0 -1 -5 -17 -11 -35 -15 -43 -29
-40 -15 4 6 19 14 35 18 35 5 0 8 -2 8 -4z m70 -5 c0 -6 -4 -13 -10 -16 -17
-10 -11 -25 10 -25 27 0 25 -17 -2 -31 -13 -6 -32 -20 -43 -30 -20 -17 -21
-17 -32 -1 -13 22 20 98 45 105 28 8 32 7 32 -2z m405 -1 c3 -5 1 -10 -5 -10
-6 0 -10 -6 -9 -12 1 -7 1 -25 0 -40 -1 -36 -31 -39 -31 -3 0 14 -4 25 -10 25
-5 0 -10 -22 -10 -49 0 -34 -5 -51 -15 -54 -22 -9 -28 9 -20 69 6 54 7 54 41
54 19 0 33 3 33 8 -4 23 14 31 26 12z m299 -24 c9 -19 16 -41 16 -50 0 -23
-29 -32 -45 -15 -18 20 -27 87 -12 93 22 8 25 6 41 -28z m196 2 c0 -6 -7 -8
-15 -4 -9 3 -15 0 -15 -9 0 -18 -21 -20 -38 -3 -18 18 -15 26 11 30 30 5 57
-2 57 -14z m-725 2 c3 -5 20 -10 37 -10 30 0 30 -1 25 -37 -7 -43 -38 -78 -62
-70 -14 6 -14 9 0 36 8 17 15 37 15 46 0 23 -19 18 -30 -9 -10 -27 -26 -40
-39 -32 -10 6 29 86 41 86 4 0 10 -4 13 -10z m461 -16 c8 -29 -7 -49 -30 -41
-19 8 -21 53 -3 60 22 10 27 7 33 -19z m487 1 c7 -16 3 -20 -35 -29 -24 -5
-28 -11 -28 -41 0 -43 -28 -115 -45 -115 -7 0 -15 -13 -17 -30 -6 -41 2 -38
34 13 29 46 52 122 43 137 -3 6 1 10 11 10 17 0 17 -4 -2 -80 -5 -24 -5 -24
10 -7 8 11 18 37 21 59 5 28 13 42 26 45 10 3 19 13 19 23 0 14 7 17 33 16 25
-1 33 -6 35 -24 2 -14 -2 -22 -11 -22 -41 0 -128 -110 -107 -135 7 -8 9 -19 6
-24 -10 -16 -36 -1 -36 20 0 10 -4 19 -10 19 -5 0 -10 -11 -10 -25 0 -17 9
-29 30 -40 26 -13 30 -21 30 -54 0 -46 -30 -88 -88 -122 -20 -12 -49 -34 -64
-47 -26 -24 -28 -24 -28 -6 0 11 11 36 25 56 14 20 25 46 25 56 0 11 14 36 30
57 30 38 37 55 21 55 -11 0 -56 -68 -66 -100 -4 -14 -18 -41 -31 -60 -13 -19
-24 -43 -24 -53 0 -10 -8 -30 -19 -45 -70 -101 -111 -184 -111 -222 0 -21 -51
-152 -65 -170 -15 -18 -41 -100 -50 -156 -4 -23 -2 -68 4 -100 10 -53 9 -75
-4 -62 -3 3 -11 33 -17 66 -9 50 -8 80 6 167 18 111 49 196 115 312 26 46 38
78 34 92 -4 16 -1 21 16 21 16 0 21 6 21 26 0 14 13 43 28 63 42 52 113 194
103 204 -11 11 -24 -8 -44 -63 -20 -54 -56 -114 -64 -107 -9 10 28 108 43 114
9 3 12 13 9 24 -4 12 -2 19 7 19 7 0 18 12 24 28 26 66 37 99 41 125 3 15 10
27 15 27 6 0 7 -11 4 -26 -4 -15 -3 -23 2 -20 5 3 12 16 15 28 2 13 8 32 12
43 8 20 8 20 -14 0 l-23 -20 3 25 c2 14 9 24 14 23 6 -1 14 5 18 13 4 8 17 14
27 14 10 0 22 5 25 10 9 14 22 12 28 -5z m-835 -17 c-5 -32 -28 -35 -28 -4 0
17 5 26 16 26 10 0 14 -7 12 -22z m170 -25 c-2 -25 -8 -48 -14 -50 -19 -6 -43
25 -37 49 9 43 12 48 33 48 19 0 21 -5 18 -47z m57 37 c8 -13 -3 -50 -15 -50
-12 0 -23 37 -15 50 3 5 10 10 15 10 5 0 12 -5 15 -10z m55 -46 c0 -38 -3 -45
-17 -42 -22 4 -31 77 -12 89 21 13 29 0 29 -47z m286 -1 c-3 -8 -6 -20 -6 -27
0 -7 -11 -18 -25 -24 -30 -14 -35 -59 -7 -69 9 -4 22 -14 28 -22 10 -13 14
-13 28 -2 9 7 16 24 16 37 0 31 13 31 30 -1 12 -22 11 -29 -8 -54 -27 -37
-100 -227 -113 -294 -5 -28 -11 -53 -14 -55 -14 -15 -48 43 -74 128 -10 32
-10 30 -6 -23 3 -43 11 -67 29 -92 23 -29 25 -37 14 -59 -6 -14 -15 -26 -19
-26 -4 0 -17 -20 -27 -44 -16 -35 -25 -43 -46 -43 -30 0 -31 5 -12 84 8 32 13
76 12 98 -2 27 4 49 17 67 17 22 19 37 14 88 -4 48 -2 63 9 67 22 8 30 -5 16
-27 -7 -11 -12 -28 -11 -37 0 -13 3 -11 11 7 11 24 11 24 19 -15 10 -56 27
-95 39 -95 14 0 12 20 -5 54 -20 37 -24 88 -7 93 8 3 12 -6 12 -26 0 -20 5
-31 14 -31 25 0 26 15 1 58 -13 24 -27 59 -30 80 l-6 37 20 -25 c11 -14 21
-28 21 -32 0 -5 7 -8 16 -8 12 0 8 10 -16 40 -17 22 -30 48 -28 57 2 13 9 8
26 -20 12 -21 27 -35 32 -32 22 13 -35 83 -73 89 -12 1 -23 10 -25 19 -4 20 9
22 26 5 9 -9 15 -9 24 0 18 18 -3 48 -32 44 -18 -3 -21 0 -16 13 3 9 6 21 6
27 0 6 6 6 15 -2 8 -7 22 -9 31 -6 9 4 23 1 31 -5 17 -15 29 -4 15 14 -16 19
-4 29 20 16 12 -6 17 -17 14 -26z m489 8 c3 -15 5 -34 3 -41 -2 -8 5 -16 15
-18 11 -2 17 3 17 15 0 19 18 43 32 43 4 0 8 -7 8 -15 0 -10 9 -13 31 -10 25
3 32 -1 40 -23 13 -32 3 -127 -14 -139 -15 -12 -67 -15 -67 -5 0 4 5 13 12 20
6 6 9 15 5 18 -4 4 -28 -9 -53 -30 -26 -20 -54 -36 -63 -37 -9 0 -26 -2 -39
-3 -33 -4 -38 12 -11 40 12 13 19 27 15 31 -4 5 -22 -8 -39 -28 -40 -46 -72
-55 -92 -26 -11 16 -12 23 -3 28 7 5 18 3 25 -2 16 -14 36 -1 29 18 -3 8 1 27
9 43 11 20 12 31 4 36 -13 8 -27 -11 -36 -48 -7 -34 -43 -40 -43 -8 0 56 55
115 104 112 28 -2 33 1 32 19 -1 29 20 36 27 8 7 -25 27 -16 27 12 0 29 18 23
25 -10z m-435 4 c8 -9 22 -12 43 -8 26 5 29 4 24 -11 -4 -10 -7 -24 -7 -32 0
-18 -24 -18 -60 1 -21 11 -30 23 -30 40 0 28 12 32 30 10z m650 3 c0 -23 -34
-118 -43 -118 -4 0 -6 8 -3 18 3 9 8 31 11 47 12 54 16 65 26 65 5 0 9 -5 9
-12z m-918 -37 c7 21 45 -13 58 -51 14 -43 9 -64 -25 -103 -33 -37 -65 -48
-107 -36 -44 13 -61 27 -79 67 -7 17 -20 32 -26 32 -20 0 -15 -25 7 -45 29
-26 25 -34 -14 -32 -36 3 -63 17 -31 17 14 0 16 6 11 30 -4 23 1 41 19 70 23
37 45 52 45 31 0 -5 12 -12 26 -15 19 -5 24 -11 20 -23 -4 -9 -1 -20 6 -25 21
-13 28 -9 28 16 0 14 4 36 10 51 8 22 13 24 29 15 14 -7 20 -7 23 1z m-483
-63 c1 -23 -6 -31 -35 -43 -40 -16 -80 -20 -88 -7 -3 5 -2 19 1 32 l6 24 9
-23 c11 -31 27 -17 34 31 6 35 9 39 19 25 16 -22 21 -21 29 6 7 21 7 21 16 2
5 -11 9 -32 9 -47z m261 11 c0 -12 -11 -24 -27 -30 -50 -20 -58 -26 -61 -47
-3 -17 4 -23 30 -30 45 -11 49 -44 9 -81 -34 -32 -72 -41 -181 -41 -90 -1
-140 -21 -173 -70 l-23 -35 -114 0 c-130 0 -187 -18 -241 -76 -42 -45 -45 -31
-7 27 36 53 129 123 165 124 28 0 94 30 109 49 8 10 13 11 18 3 11 -19 26 -14
19 6 -6 15 -5 15 10 3 14 -11 23 -12 43 -2 14 6 34 11 45 11 10 0 27 4 37 9
134 66 172 89 200 117 18 19 37 34 41 34 5 0 14 13 21 29 19 46 80 46 80 0z
m1213 -5 c7 -43 -8 -76 -52 -118 -42 -40 -46 -30 -10 26 17 26 33 65 36 88 7
50 18 52 26 4z m-679 8 c2 -4 1 -14 -4 -22 -7 -11 -12 -12 -21 -3 -6 6 -8 16
-5 22 8 13 23 14 30 3z m-544 -66 c0 -19 -28 -28 -48 -17 -15 9 -14 11 8 20
34 14 40 13 40 -3z m323 -48 c7 -25 3 -33 -12 -23 -13 8 -15 45 -2 45 5 0 11
-10 14 -22z m-25 -28 c15 -25 8 -40 -19 -40 -19 0 -24 15 -13 44 8 21 17 20
32 -4z m715 4 c20 -7 22 -20 5 -27 -16 -6 -58 9 -58 21 0 14 13 23 24 17 6 -3
19 -8 29 -11z m-963 0 c0 -3 -11 -20 -26 -36 -14 -17 -22 -37 -19 -46 3 -8 1
-20 -4 -26 -5 -6 -12 -21 -15 -33 -6 -17 -3 -23 8 -23 9 0 16 8 16 19 0 10 7
24 15 31 9 7 13 21 10 31 -7 21 32 79 53 79 11 0 12 -3 4 -13 -6 -7 -9 -23 -5
-35 3 -12 1 -22 -4 -22 -9 0 -42 -57 -53 -92 -3 -9 -36 -49 -75 -90 -38 -40
-77 -84 -86 -98 -9 -14 -20 -22 -24 -18 -9 9 18 59 49 87 14 14 26 28 26 33 0
19 -27 6 -52 -24 -14 -18 -29 -31 -32 -28 -14 15 -1 180 15 180 5 0 9 -4 9 -8
0 -22 43 -52 75 -52 36 0 47 16 20 26 -8 4 -12 10 -9 15 3 6 1 16 -5 23 -8 9
-3 18 20 35 17 13 37 38 45 57 8 19 21 34 29 34 8 0 15 -3 15 -6z m700 -25 c0
-7 11 -8 30 -4 29 6 42 -7 20 -20 -17 -10 -70 5 -70 21 0 8 5 14 10 14 6 0 10
-5 10 -11z m377 -14 c-4 -8 5 -22 20 -33 l26 -19 -83 -92 c-59 -65 -86 -88
-92 -79 -12 20 -10 38 6 38 7 0 31 19 53 43 32 34 41 54 47 94 6 46 12 63 24
63 2 0 2 -7 -1 -15z m-915 -45 c-3 -32 -1 -40 12 -40 9 0 16 -4 16 -10 0 -5
-7 -10 -15 -10 -12 0 -15 -11 -13 -50 1 -27 0 -51 -2 -54 -3 -2 -29 0 -59 5
-56 9 -71 6 -71 -13 0 -7 13 -8 34 -5 24 4 39 1 47 -9 7 -8 20 -12 35 -8 27 7
32 -7 10 -25 -11 -9 -19 -9 -37 1 -17 10 -23 10 -26 1 -3 -7 -11 -13 -19 -13
-8 0 -14 -10 -14 -25 0 -17 6 -25 17 -25 14 0 14 -2 -3 -21 -21 -24 -20 -75 2
-100 19 -22 18 -29 -7 -29 -15 0 -19 -4 -15 -16 10 -25 -4 -37 -20 -17 -12 16
-13 15 -14 -14 0 -32 12 -43 25 -23 4 7 13 7 26 0 29 -16 23 -32 -10 -28 -25
2 -35 -4 -60 -38 -34 -47 -86 -88 -101 -79 -18 11 -10 44 14 60 33 22 57 76
56 127 0 62 14 205 22 213 11 11 28 -5 28 -26 0 -10 5 -19 11 -19 16 0 2 52
-18 67 -13 10 -14 15 -3 28 10 12 11 18 2 24 -8 5 -3 25 17 66 16 33 32 75 36
93 6 30 9 33 36 27 21 -5 31 -2 35 9 13 33 30 17 26 -24z m618 21 c0 -20 -17
-37 -27 -28 -7 8 7 47 18 47 5 0 9 -9 9 -19z m-572 -31 c11 -46 3 -53 -15 -13
-15 32 -17 53 -4 53 5 0 13 -18 19 -40z m828 24 c-3 -9 -6 -24 -6 -34 0 -19
-67 -98 -88 -102 -9 -2 -14 10 -16 40 -2 37 0 42 20 42 13 0 34 14 51 34 30
37 49 46 39 20z m-339 -9 c-4 -8 -2 -17 4 -20 5 -4 12 1 15 9 10 26 22 18 20
-13 -1 -29 -10 -42 -83 -124 -32 -36 -41 -57 -25 -57 4 0 23 20 42 45 38 48
64 63 31 18 -11 -16 -45 -55 -75 -88 -31 -33 -64 -81 -74 -106 -18 -49 -39
-61 -33 -19 6 46 43 135 68 162 25 27 24 48 -3 48 -8 0 -14 -8 -14 -19 0 -19
-26 -48 -36 -39 -10 11 45 117 68 128 37 20 68 52 68 72 0 10 7 18 16 18 10 0
14 -6 11 -15z m-1003 -70 c-14 -21 -14 -26 0 -53 8 -16 27 -33 41 -36 36 -9
33 -40 -6 -57 -27 -10 -36 -10 -58 2 -29 16 -36 36 -27 82 8 41 44 100 56 92
6 -4 4 -15 -6 -30z m73 -15 c-2 -44 -5 -50 -23 -50 -39 0 -47 60 -12 84 34 24
38 20 35 -34z m100 35 c10 -27 -6 -30 -29 -7 l-22 22 22 0 c12 0 25 -7 29 -15z
m140 -56 c-13 -30 -38 -71 -56 -93 -37 -46 -38 -52 -10 -66 12 -7 19 -19 17
-32 -2 -16 -21 -27 -79 -48 -41 -15 -81 -30 -87 -34 -24 -15 -11 19 27 68 21
28 68 83 104 121 38 40 73 89 83 115 10 25 19 40 21 34 2 -7 -7 -36 -20 -65z
m-372 14 c-10 -15 -19 -47 -19 -71 -1 -35 4 -48 24 -64 24 -20 72 -21 113 -4
34 16 17 -19 -26 -49 -112 -80 -193 -85 -236 -14 -15 24 -17 38 -10 56 11 30
12 53 1 53 -5 0 -15 -18 -22 -39 -25 -76 29 -142 118 -144 54 -2 102 19 161
69 40 35 41 35 41 11 0 -13 -3 -27 -7 -30 -3 -4 -8 -22 -10 -39 -4 -44 -45
-78 -158 -132 -126 -60 -163 -70 -239 -63 -102 10 -168 51 -211 132 -38 73
-33 117 23 183 24 29 58 58 76 66 33 14 185 40 192 34 2 -3 -17 -20 -42 -39
-39 -29 -84 -84 -84 -103 0 -18 32 -2 45 24 22 42 115 111 141 104 15 -4 34 7
70 40 57 52 87 62 59 19z m575 -2 c0 -11 -4 -22 -9 -25 -11 -7 -23 22 -15 35
9 16 24 10 24 -10z m178 -21 c-6 -22 -15 -40 -20 -40 -5 0 -6 10 -3 23 4 12 9
30 11 40 11 36 21 15 12 -23z m146 -22 c-9 -30 -10 -32 -30 -24 -15 6 -15 8 1
26 24 27 38 25 29 -2z m-43 -39 c18 -18 19 -24 9 -54 -16 -48 -46 -82 -91
-105 l-39 -20 0 25 c0 14 5 25 10 25 6 0 10 8 10 19 0 10 13 35 30 56 16 20
32 45 35 56 8 24 10 24 36 -2z m433 4 c8 -19 0 -28 -31 -38 -27 -8 -29 2 -7
33 18 26 30 28 38 5z m-946 -58 c-12 -27 -28 -34 -28 -12 0 14 20 37 32 37 4
0 2 -11 -4 -25z m962 -16 c0 -24 -27 -36 -43 -20 -8 8 -7 11 6 11 9 0 17 5 17
10 0 6 -5 10 -11 10 -5 0 -8 4 -4 10 9 15 35 0 35 -21z m-596 -1 c-4 -7 -17
-26 -29 -43 -12 -16 -34 -56 -50 -88 -24 -51 -45 -79 -45 -62 0 30 104 205
122 205 5 0 6 -6 2 -12z m-229 -8 c4 -7 12 -7 25 0 27 15 30 13 30 -20 0 -19
-5 -30 -14 -30 -25 0 -46 12 -46 26 0 8 -4 14 -10 14 -5 0 -10 5 -10 10 0 13
17 13 25 0z m713 -39 c15 -48 15 -53 0 -88 -6 -15 -17 -46 -23 -68 -7 -22 -16
-49 -20 -60 -6 -15 -5 -17 3 -10 7 6 20 35 30 65 18 51 42 79 42 47 0 -8 7
-17 15 -21 8 -3 15 -12 15 -21 0 -21 -18 -19 -22 3 -3 14 -6 13 -20 -8 -25
-37 -26 -61 -3 -74 11 -6 22 -12 24 -13 6 -4 -20 -33 -30 -33 -5 0 -6 7 -2 16
5 14 2 16 -22 10 -18 -5 -31 -3 -36 5 -5 9 -14 6 -34 -10 -28 -22 -55 -28 -55
-12 0 5 11 16 25 25 30 19 55 65 60 109 2 18 8 52 15 76 6 24 8 52 5 62 -7 20
1 39 14 39 4 0 13 -17 19 -39z m-701 -45 c-4 -9 -13 -16 -22 -16 -18 0 -19 4
-3 30 14 22 34 10 25 -14z m620 8 c2 -6 -6 -14 -19 -17 -27 -7 -32 -3 -24 18
6 18 37 17 43 -1z m983 -22 c0 -38 -73 -81 -125 -73 -25 3 -65 28 -65 41 0 5
7 7 15 4 8 -4 15 -1 15 5 0 6 12 11 26 11 14 0 34 5 46 11 11 6 23 8 26 4 11
-11 -30 -35 -60 -35 -15 0 -28 -5 -28 -11 0 -22 73 -1 104 31 35 35 46 37 46
12z m-1779 -27 c0 -5 -9 -11 -21 -13 -11 -2 -20 -7 -20 -12 0 -20 13 -40 26
-40 8 0 14 -4 14 -9 0 -13 -32 -23 -39 -13 -3 5 -14 11 -23 15 -11 4 -15 13
-11 26 4 16 1 21 -16 21 -11 0 -21 6 -21 14 0 10 10 13 35 11 19 -2 37 1 41 6
7 13 35 8 35 -6z m786 1 c-4 -13 -97 -20 -97 -7 0 13 19 19 63 19 24 0 36 -5
34 -12z m693 4 c11 -7 8 -10 -16 -10 -17 0 -37 -7 -44 -15 -14 -17 -30 -20
-30 -5 0 10 48 39 65 39 6 1 17 -4 25 -9z m-810 -25 c0 -8 4 -23 9 -33 42 -82
45 -92 33 -104 -9 -9 -17 -6 -38 13 -32 29 -59 79 -55 99 7 35 51 57 51 25z
m-790 -30 c0 -13 7 -50 15 -81 8 -32 13 -60 10 -62 -9 -9 -55 9 -74 29 -27 29
-35 74 -21 110 18 43 30 35 30 -21 0 -39 3 -50 16 -50 12 0 14 5 9 18 -13 30
-17 61 -11 77 8 23 26 9 26 -20z m680 6 c-5 -11 -15 -23 -20 -26 -13 -8 -13
-55 0 -55 6 0 10 -19 10 -43 0 -30 8 -56 27 -85 15 -23 31 -42 35 -42 4 0 24
-11 44 -25 20 -14 45 -25 55 -25 11 0 19 -7 19 -15 0 -21 -33 -19 -78 4 -68
35 -111 99 -119 177 -3 30 -10 54 -14 54 -12 0 -11 26 0 48 5 9 12 25 15 35 3
9 12 17 21 17 12 0 14 -4 5 -19z m-387 -27 c9 -10 -15 -54 -30 -54 -7 0 -13 5
-13 10 0 6 5 10 11 10 6 0 8 9 4 20 -6 19 13 29 28 14z m408 -4 c10 -6 19 -17
19 -25 0 -8 7 -15 15 -15 13 0 19 -12 16 -32 -1 -10 57 -49 77 -52 31 -5 18
-30 -31 -55 l-47 -26 -27 28 c-24 23 -28 37 -31 98 -3 43 -8 66 -13 58 -11
-18 -21 -6 -13 15 7 19 9 19 35 6z m-197 -35 c-4 -23 -2 -35 5 -35 7 0 9 -9 5
-25 -6 -26 23 -173 38 -190 11 -13 10 -55 -2 -55 -5 0 -14 8 -19 18 -17 31
-51 179 -51 220 0 53 10 102 22 102 5 0 6 -16 2 -35z m396 5 c0 -15 -38 -32
-45 -20 -3 5 -3 15 0 20 8 13 45 13 45 0z m733 -4 c62 -26 127 -129 127 -199
0 -83 -78 -187 -141 -187 -33 0 -98 30 -119 55 -17 21 -7 29 19 16 45 -25 134
21 162 83 10 24 15 51 12 68 -3 17 -1 28 6 28 7 0 11 -19 11 -48 0 -66 -34
-131 -84 -158 -39 -22 -35 -41 6 -25 87 34 123 163 74 266 -18 40 -33 56 -70
75 -25 14 -46 28 -46 32 0 11 6 10 43 -6z m-73 -7 c0 -5 6 -9 13 -9 6 0 33
-14 60 -30 57 -36 64 -72 20 -111 -61 -53 -105 -63 -123 -28 -9 15 -18 19 -35
15 -31 -8 -45 17 -45 78 0 49 -16 62 -26 21 -15 -58 27 -135 72 -135 8 0 23
-6 34 -12 16 -11 28 -10 65 3 53 19 57 16 13 -11 -75 -45 -180 -6 -207 77 -12
37 -11 44 10 88 21 41 29 48 57 50 18 2 35 4 37 6 8 8 55 6 55 -2z m-1336 -75
c4 -11 -1 -18 -14 -21 -11 -3 -20 -11 -20 -17 0 -16 -68 -76 -86 -76 -22 0
-16 13 16 35 17 11 42 37 57 58 28 41 38 45 47 21z m-548 -22 c2 -32 32 -88
77 -143 20 -26 37 -50 37 -54 0 -4 17 -26 38 -50 21 -24 50 -67 65 -97 31 -61
48 -136 29 -124 -7 4 -12 14 -12 22 0 25 -69 145 -129 223 -115 150 -158 221
-146 242 12 18 40 5 41 -19z m1250 2 c-4 -11 1 -18 14 -21 11 -3 20 -9 20 -14
0 -16 -32 -23 -51 -11 -10 7 -26 12 -35 12 -22 0 -12 23 17 37 32 17 42 16 35
-3z m84 -20 c0 -8 -9 -14 -19 -14 -22 0 -35 15 -27 29 9 13 46 1 46 -15z
m-754 -5 c10 -17 -13 -36 -27 -22 -12 12 -4 33 11 33 5 0 12 -5 16 -11z m329
-89 c9 -25 19 -51 22 -57 3 -7 0 -13 -6 -13 -15 0 -38 48 -46 95 -9 50 5 38
30 -25z m309 41 c7 -6 26 -6 51 -1 65 15 71 13 42 -18 -32 -33 -34 -46 -7 -37
18 6 20 2 20 -39 0 -40 4 -47 28 -59 15 -8 33 -13 40 -11 7 1 8 0 2 -3 -29
-14 9 -39 79 -52 19 -3 36 -12 39 -19 7 -22 -56 -13 -131 19 -43 19 -97 33
-134 36 l-63 6 0 41 c0 45 13 66 42 66 35 0 17 18 -24 25 -46 7 -98 24 -98 33
0 27 85 37 114 13z m-659 -11 c3 -6 -5 -14 -18 -19 -14 -6 -27 -16 -30 -23 -2
-7 -8 -10 -12 -6 -11 10 22 58 40 58 7 0 17 -5 20 -10z m835 -27 c0 -5 -9 -19
-19 -32 -22 -29 -36 -13 -15 17 15 21 34 30 34 15z m-1020 -10 c0 -3 -7 -14
-16 -24 -14 -16 -13 -18 15 -24 17 -4 37 -16 45 -27 9 -12 16 -15 21 -9 11 19
45 13 45 -8 0 -26 -54 -36 -83 -16 -12 8 -33 15 -48 15 -14 0 -34 9 -45 21
-17 19 -18 21 -1 30 9 6 17 16 17 24 0 13 14 23 38 24 6 1 12 -2 12 -6z m242
-12 c4 -3 10 -18 13 -33 6 -21 4 -28 -8 -28 -8 0 -17 7 -21 15 -13 34 -76 -4
-76 -45 0 -30 -14 -24 -28 13 -11 29 -10 34 8 49 11 9 20 21 20 26 0 6 6 12
13 15 14 5 69 -3 79 -12z m832 11 c-5 -4 -23 -24 -38 -44 -16 -21 -37 -38 -47
-38 -18 0 -18 1 -1 19 9 11 25 31 35 45 10 15 27 26 40 26 12 0 17 -4 11 -8z
m-1000 -11 c4 -5 4 -16 0 -24 -4 -12 -10 -12 -30 -3 -13 6 -24 17 -24 24 0 14
46 17 54 3z m1026 -16 c0 -8 -3 -15 -7 -15 -5 0 -17 -14 -28 -30 -21 -31 -35
-39 -35 -18 0 15 49 78 61 78 5 0 9 -7 9 -15z m30 -45 c-16 -31 -2 -39 20 -13
14 18 24 22 49 17 25 -5 29 -9 20 -20 -6 -7 -21 -16 -32 -20 -12 -3 -29 -13
-39 -21 -9 -8 -30 -13 -49 -11 -48 4 -49 30 -3 75 38 36 55 33 34 -7z m-910
-16 c0 -9 -7 -14 -17 -12 -25 5 -28 28 -4 28 12 0 21 -6 21 -16z m370 -24 c14
-15 58 -46 98 -70 40 -23 71 -44 69 -46 -11 -12 -106 37 -153 79 -30 27 -54
44 -54 39 0 -11 65 -72 102 -95 13 -9 59 -27 103 -42 78 -25 141 -54 119 -55
-18 0 -178 56 -219 78 -22 12 -49 30 -60 39 -28 25 -75 89 -75 103 0 18 42 0
70 -30z m-756 4 c3 -9 6 -25 6 -37 0 -27 -15 -11 -24 26 -7 29 8 38 18 11z
m-246 -18 c40 -20 89 -73 97 -103 9 -37 2 -37 -39 2 -20 19 -58 44 -84 56 -42
19 -53 20 -101 10 -78 -15 -125 -65 -132 -140 -3 -21 1 -36 9 -38 8 -3 12 6
12 29 0 18 5 40 10 48 7 11 10 5 10 -23 0 -46 44 -116 92 -145 43 -27 146 -56
182 -53 28 3 46 -11 46 -38 0 -10 -17 -12 -76 -9 -73 3 -78 5 -105 37 -28 34
-29 34 -68 21 -49 -16 -89 -3 -139 44 -66 62 -61 157 10 202 42 27 48 43 18
51 -11 3 -20 7 -20 10 0 16 51 43 105 57 35 9 143 -3 173 -18z m1698 3 c16
-17 16 -22 4 -29 -21 -14 -30 -12 -30 5 0 8 -4 15 -10 15 -5 0 -10 -9 -10 -20
0 -20 -22 -26 -54 -14 -26 10 -19 29 17 46 45 22 61 21 83 -3z m-1026 -8 c0
-10 -6 -30 -13 -44 -10 -19 -17 -23 -28 -16 -12 7 -12 10 0 18 10 6 10 10 1
16 -6 4 -20 -1 -31 -11 -14 -12 -23 -14 -30 -7 -16 16 10 51 41 56 53 8 60 7
60 -12z m-223 -2 c8 -8 6 -26 -8 -65 -10 -29 -19 -62 -19 -73 0 -28 -21 -37
-37 -16 -13 19 -11 36 12 90 8 17 16 40 20 53 7 24 16 27 32 11z m72 -45 c-20
-22 -24 -35 -23 -88 1 -91 42 -157 99 -161 6 -1 21 -5 33 -9 l24 -8 -21 -19
c-11 -10 -30 -19 -43 -18 -22 0 -22 1 -3 8 17 7 16 9 -12 15 -23 5 -43 21 -65
53 -18 25 -45 51 -60 59 -29 15 -36 30 -17 36 6 2 12 22 14 43 3 56 35 123 60
128 34 5 40 -11 14 -39z m263 -32 c10 -26 34 -67 55 -92 l38 -44 -33 19 c-44
26 -115 165 -84 165 4 0 15 -21 24 -48z m-804 3 c91 -47 113 -77 107 -146 -2
-24 -4 -47 -4 -51 -1 -15 -46 -8 -77 11 -17 11 -42 39 -56 63 -18 34 -29 43
-50 43 -15 1 -30 4 -34 8 -8 8 -7 74 1 87 11 18 65 10 113 -15z m872 -32 c13
-15 26 -20 36 -16 11 4 15 2 11 -4 -17 -27 93 -88 194 -108 64 -12 127 -40
116 -52 -3 -2 -18 2 -34 10 -16 9 -62 19 -103 22 -65 6 -79 11 -109 39 -22 20
-35 27 -38 19 -8 -22 -28 -14 -64 23 -25 27 -30 38 -20 42 11 4 9 8 -6 21 -12
9 -24 27 -27 41 -7 24 -7 24 9 5 9 -11 25 -30 35 -42z m-1026 10 c-5 -16 -8
-45 -8 -65 0 -20 -4 -34 -8 -32 -9 6 -11 85 -2 108 11 28 27 18 18 -11z m740
18 c3 -4 17 -6 31 -3 15 2 25 0 25 -7 0 -6 -7 -11 -15 -11 -8 0 -30 -14 -50
-31 -28 -25 -35 -28 -35 -14 0 10 8 24 18 32 12 10 14 16 4 19 -6 3 -10 10 -6
15 7 11 21 12 28 0z m66 -46 c-7 -8 -18 -15 -25 -15 -8 0 -23 -12 -34 -27 -22
-27 -38 -26 -28 2 7 17 65 55 86 55 11 0 11 -3 1 -15z m-780 -75 c-10 -18 6
-50 25 -50 12 0 14 9 10 41 -6 50 12 49 37 -2 26 -52 62 -78 118 -85 50 -7 64
-19 35 -31 -25 -9 -136 18 -181 44 -65 37 -73 50 -66 113 l5 55 12 -35 c7 -19
9 -42 5 -50z m274 -3 c-6 -91 5 -151 38 -205 11 -17 24 -30 29 -26 5 3 -2 22
-16 42 -31 45 -34 79 -4 42 43 -53 92 -100 105 -100 8 0 14 1 14 3 0 2 -31 35
-70 74 -49 48 -70 77 -70 94 1 22 2 21 23 -11 25 -41 119 -130 136 -130 20 0
12 -17 -20 -44 -58 -49 -114 -23 -161 73 -30 62 -30 65 -23 167 4 57 11 104
16 104 5 0 6 -37 3 -83z m584 54 c3 -10 -2 -13 -21 -9 -19 4 -36 -4 -68 -32
-51 -44 -47 -75 5 -35 18 14 48 27 67 30 33 5 33 5 9 -7 -13 -7 -37 -26 -53
-41 -30 -29 -56 -29 -84 -1 -19 19 -16 32 15 61 51 48 120 66 130 34z m-497
-104 c-6 -15 -15 -27 -21 -27 -19 0 -23 30 -7 48 8 9 19 31 24 47 l8 30 3 -36
c2 -19 -2 -47 -7 -62z m49 43 c11 -40 6 -94 -10 -121 -8 -12 -12 -12 -26 2
-15 15 -15 19 1 49 12 22 15 43 10 71 -9 52 11 52 25 -1z m1128 -9 c18 -13 31
-26 28 -28 -4 -4 -62 31 -101 62 -19 14 -18 14 10 3 17 -7 45 -23 63 -37z
m-638 -30 c0 -14 -5 -18 -20 -14 -12 3 -20 0 -20 -7 0 -9 -7 -7 -21 6 l-21 19
22 17 c26 21 60 9 60 -21z m-81 -25 c8 -10 9 -16 1 -21 -13 -8 -30 3 -30 21 0
18 14 18 29 0z m811 -54 c5 -20 7 -38 5 -41 -8 -7 -16 5 -21 35 -3 16 -9 33
-15 39 -15 15 -10 29 6 15 8 -7 19 -28 25 -48z m-724 16 c6 -6 -51 -28 -74
-28 -13 0 -12 4 4 19 17 17 56 22 70 9z m288 -68 c106 -54 123 -52 171 15 14
20 14 20 15 -1 0 -11 -13 -33 -29 -49 -25 -23 -36 -27 -65 -22 -60 10 -221 97
-178 97 4 0 43 -18 86 -40z m-99 -17 c-3 -14 -1 -31 6 -39 16 -19 4 -30 -16
-14 -8 7 -15 27 -15 44 0 23 -3 27 -10 16 -5 -8 -7 -25 -3 -37 7 -29 -3 -30
-17 -2 -16 29 11 70 40 62 17 -5 20 -11 15 -30z m-549 -54 c3 -6 0 -18 -9 -26
-14 -14 -25 -12 -67 15 -2 2 2 7 10 12 20 13 57 12 66 -1z m20 -57 c-10 -17
13 -34 48 -35 40 -1 45 -11 19 -39 -23 -26 -39 -23 -68 16 -24 32 -26 66 -3
66 5 0 7 -4 4 -8z"/>
<path d="M1290 4365 c0 -8 12 -17 28 -21 15 -3 39 -9 54 -14 26 -8 38 -5 38
11 0 6 -95 39 -114 39 -3 0 -6 -7 -6 -15z"/>
<path d="M1540 4371 c-36 -9 -66 -28 -57 -37 4 -4 22 -2 40 4 19 7 41 12 50
12 9 0 17 7 17 15 0 16 -9 17 -50 6z"/>
<path d="M1513 4310 c-38 -15 -28 -33 15 -26 20 3 43 6 50 6 6 0 12 7 12 15 0
17 -41 19 -77 5z"/>
<path d="M1300 4295 c0 -10 10 -15 31 -15 26 0 29 -3 24 -20 -4 -11 -2 -20 4
-20 10 0 51 35 51 44 0 7 -62 26 -86 26 -15 0 -24 -6 -24 -15z"/>
<path d="M1445 4250 c-3 -5 0 -18 7 -29 9 -15 10 -23 1 -32 -17 -17 -34 -1
-27 27 8 32 -9 31 -31 -2 -22 -34 -8 -49 46 -48 52 2 69 17 46 42 -9 10 -17
26 -17 35 0 18 -15 23 -25 7z"/>
<path d="M1384 4138 c-3 -5 -1 -15 5 -21 8 -8 15 -7 27 5 14 14 14 16 -5 21
-12 3 -24 1 -27 -5z"/>
<path d="M1453 4126 c3 -8 -2 -16 -15 -19 -11 -3 -17 -10 -13 -16 11 -19 33
-12 55 19 l21 30 -26 0 c-19 0 -26 -4 -22 -14z"/>
<path d="M1561 3872 c-25 -26 -36 -32 -39 -22 -3 8 0 16 7 18 6 2 11 10 11 18
0 12 -4 12 -19 2 -30 -18 -32 -46 -6 -72 12 -12 26 -42 30 -64 4 -23 11 -40
16 -37 4 3 6 19 2 35 -4 24 -2 30 11 30 13 0 16 8 12 43 -3 35 0 46 16 56 10
6 16 16 13 21 -10 16 -18 11 -54 -28z"/>
<path d="M1619 3838 c0 -2 -3 -30 -6 -63 -4 -52 -3 -58 10 -46 13 10 18 8 31
-11 8 -13 16 -43 18 -68 2 -32 8 -45 18 -45 11 0 14 9 12 33 -4 36 -37 118
-52 127 -6 3 -10 19 -10 35 0 16 -4 32 -10 35 -5 3 -10 5 -11 3z"/>
<path d="M1218 3557 c-22 -17 -29 -67 -12 -74 8 -3 14 -13 14 -22 0 -17 34
-44 44 -34 11 11 6 23 -9 23 -9 0 -15 9 -15 25 0 16 -6 25 -15 25 -19 0 -19
10 1 38 19 27 14 37 -8 19z"/>
<path d="M1300 3516 c0 -8 -9 -18 -20 -21 -11 -3 -20 -11 -20 -16 0 -5 9 -9
20 -9 11 0 20 -4 20 -10 0 -5 5 -10 10 -10 6 0 10 18 10 40 0 22 -4 40 -10 40
-5 0 -10 -6 -10 -14z"/>
<path d="M467 3373 c-14 -13 -6 -23 17 -23 30 0 42 15 20 24 -20 8 -29 8 -37
-1z"/>
<path d="M300 3339 c-19 -4 -61 -11 -92 -14 -32 -4 -58 -10 -58 -15 0 -12 124
-1 169 15 43 14 29 25 -19 14z"/>
<path d="M922 3199 c-13 -5 -21 -13 -17 -18 7 -12 47 1 53 17 4 14 -4 14 -36
1z"/>
<path d="M2063 2552 c-7 -15 -15 -39 -19 -55 -3 -15 -10 -30 -15 -33 -13 -8
-11 -26 2 -22 14 5 59 127 50 132 -4 3 -12 -7 -18 -22z"/>
<path d="M1942 2300 c-12 -22 -19 -40 -15 -40 9 0 53 62 53 73 0 18 -17 3 -38
-33z"/>
<path d="M1051 2482 c-14 -25 -14 -42 -1 -42 16 0 33 41 22 52 -7 7 -14 3 -21
-10z"/>
<path d="M1100 2486 c0 -15 38 -29 53 -19 12 7 -20 33 -40 33 -7 0 -13 -6 -13
-14z"/>
<path d="M765 2261 c-6 -6 -32 -11 -59 -13 -67 -4 -75 -28 -9 -28 49 0 96 17
95 35 -1 14 -16 17 -27 6z"/>
<path d="M968 2000 c-23 -25 -11 -32 24 -14 17 9 38 12 51 8 15 -4 19 -3 12 4
-20 20 -69 22 -87 2z"/>
<path d="M2131 1805 c-2 -5 -2 -22 -1 -37 1 -15 -4 -36 -10 -48 -13 -24 -6
-40 11 -23 5 5 8 34 6 64 -2 30 -5 50 -6 44z"/>
<path d="M1970 1722 c0 -4 6 -14 13 -21 10 -10 8 -16 -10 -31 -32 -25 -29 -33
6 -16 34 18 46 43 30 62 -12 15 -39 19 -39 6z"/>
<path d="M1148 1180 c-2 -31 1 -50 8 -50 6 0 10 21 10 50 -1 65 -13 65 -18 0z"/>
<path d="M2191 4771 c-8 -5 -11 -16 -8 -25 4 -9 1 -25 -5 -36 -15 -24 -4 -37
17 -20 10 8 15 9 15 1 0 -6 5 -11 11 -11 8 0 8 4 1 13 -6 7 -9 29 -7 50 3 38
0 43 -24 28z"/>
<path d="M781 4579 c-17 -74 -6 -109 34 -109 34 0 65 17 65 35 0 17 -26 20
-35 5 -7 -12 -42 -13 -49 -2 -3 5 2 29 11 53 16 43 13 79 -5 79 -4 0 -14 -27
-21 -61z"/>
<path d="M1080 4458 c1 -23 8 -38 25 -51 20 -15 25 -15 25 -3 0 24 -12 46 -21
40 -5 -3 -9 4 -9 15 0 11 -4 23 -10 26 -6 4 -10 -7 -10 -27z"/>
<path d="M2234 4226 c-16 -32 -16 -38 -3 -51 13 -14 18 -12 40 11 l24 27 -22
-6 c-25 -6 -29 3 -11 21 9 9 9 15 1 23 -9 9 -16 3 -29 -25z"/>
<path d="M975 4032 c14 -15 40 -19 43 -7 1 6 -10 11 -25 13 -19 2 -25 0 -18
-6z"/>
<path d="M2890 3515 c0 -8 -7 -15 -15 -15 -8 0 -20 -9 -27 -19 -9 -15 -19 -18
-40 -14 -37 7 -36 -11 2 -34 34 -20 41 -48 10 -40 -12 3 -20 0 -20 -8 0 -7 -8
-23 -19 -36 -16 -20 -21 -21 -35 -10 -24 20 -40 -25 -19 -57 8 -13 12 -31 10
-40 -3 -15 -5 -14 -12 3 -5 11 -15 26 -22 33 -17 17 -16 36 2 72 16 31 29 37
40 20 11 -17 25 -11 35 16 13 32 4 49 -17 32 -8 -6 -25 -13 -36 -15 -38 -5
-58 -41 -55 -96 3 -48 6 -52 51 -84 27 -19 51 -32 54 -29 3 3 -4 28 -16 55
-27 63 -26 69 4 64 19 -4 27 0 35 19 6 13 21 28 33 33 12 6 23 20 25 33 2 13
14 27 28 32 16 6 24 17 24 32 0 13 3 33 6 46 5 16 2 22 -10 22 -9 0 -16 -7
-16 -15z m0 -49 c0 -14 -29 -31 -38 -21 -6 6 18 35 29 35 5 0 9 -6 9 -14z"/>
<path d="M2606 3228 c-8 -32 -7 -38 4 -38 6 0 10 7 10 15 0 8 5 15 10 15 6 0
10 7 10 15 0 24 -27 18 -34 -7z"/>
<path d="M2548 3213 c-21 -26 -48 -102 -41 -119 3 -8 0 -20 -6 -28 -9 -11 -4
-20 24 -45 35 -30 75 -41 75 -21 0 6 -8 10 -19 10 -10 0 -25 8 -32 17 -15 18
-16 18 36 -3 8 -3 15 -2 15 3 0 12 -61 34 -73 26 -6 -4 -8 0 -4 11 4 10 7 20
7 23 0 2 12 -5 26 -16 15 -12 36 -21 46 -21 14 0 18 -5 14 -15 -9 -25 25 -31
43 -9 9 10 32 30 50 43 l33 23 -7 -31 c-4 -19 -3 -31 4 -31 15 0 23 38 19 95
-3 43 -7 52 -37 72 -19 13 -40 23 -47 23 -22 0 -16 -20 9 -29 12 -5 31 -19 42
-31 l20 -22 -45 -39 c-39 -35 -50 -39 -80 -34 -19 3 -45 17 -57 30 -19 22 -21
29 -11 57 6 18 15 37 19 43 11 12 12 35 1 35 -5 0 -16 -8 -24 -17z"/>
<path d="M2790 3099 c0 -24 23 -21 28 4 2 10 -3 17 -12 17 -10 0 -16 -9 -16
-21z"/>
<path d="M410 3010 c0 -11 -11 -27 -25 -36 -14 -9 -25 -23 -25 -30 0 -18 6
-18 27 1 10 8 26 21 37 28 13 10 16 20 12 35 -9 27 -26 29 -26 2z"/>
<path d="M55 3010 c-9 -15 4 -30 26 -30 10 0 19 -6 19 -14 0 -18 53 -37 71
-25 8 5 25 9 38 9 18 0 22 -4 16 -17 -11 -27 -11 -38 0 -41 6 -1 11 6 13 18 2
11 11 20 21 20 21 0 44 45 36 71 -7 22 -25 25 -25 4 0 -9 -6 -12 -16 -8 -12 4
-14 0 -8 -23 5 -24 4 -27 -7 -16 -7 6 -21 12 -31 12 -11 0 -15 5 -12 15 4 8 1
15 -6 15 -6 0 -14 -9 -17 -20 -3 -11 -14 -20 -25 -20 -14 0 -18 5 -13 19 4 15
-1 21 -26 30 -39 14 -46 14 -54 1z"/>
<path d="M2702 2990 c-15 -24 -15 -30 -1 -30 12 0 38 29 39 43 0 15 -26 6 -38
-13z"/>
<path d="M2595 2919 c-4 -6 -5 -13 -1 -16 8 -8 56 6 56 17 0 13 -47 13 -55 -1z"/>
<path d="M360 2893 c-1 -44 -45 -68 -70 -38 -7 8 -17 12 -22 9 -12 -7 20 -44
39 -44 7 0 13 -4 13 -10 0 -16 -36 -12 -50 5 -7 9 -21 13 -31 10 -14 -5 -19
-1 -19 14 0 12 -7 21 -15 21 -22 0 -18 -20 10 -63 24 -34 30 -37 73 -37 37 0
54 6 81 29 l33 29 43 -29 c24 -16 51 -29 61 -29 28 0 42 -12 45 -39 5 -31 29
-40 29 -12 0 16 8 23 30 28 34 6 36 30 3 25 -24 -3 -137 33 -171 54 -18 12
-20 19 -13 33 21 39 -5 30 -45 -16 -51 -59 -67 -52 -23 10 17 25 28 50 25 56
-11 17 -26 13 -26 -6z"/>
<path d="M600 2881 c14 -11 48 -23 77 -27 31 -4 50 -10 47 -16 -4 -6 -26 -8
-50 -5 -25 2 -45 0 -47 -6 -5 -15 -52 0 -85 28 -45 38 -62 29 -20 -10 47 -44
92 -52 179 -33 90 19 95 -4 6 -27 -47 -12 -45 -31 3 -27 36 4 70 26 70 46 0 7
9 18 20 26 39 28 24 40 -47 40 -63 0 -110 8 -158 25 -16 5 -15 3 5 -14z"/>
<path d="M555 2880 c-7 -11 40 -43 55 -38 6 2 -2 13 -19 26 -16 12 -33 18 -36
12z"/>
<path d="M2416 2818 c4 -18 12 -46 19 -63 7 -16 16 -41 19 -55 3 -14 10 -49
17 -78 9 -39 9 -63 1 -88 -6 -19 -6 -34 -1 -34 5 0 9 5 9 10 0 6 5 10 10 10
15 0 12 -83 -5 -123 -17 -40 -19 -67 -7 -67 18 0 45 117 37 162 -4 24 -8 59
-10 78 -4 34 -14 81 -29 128 -4 12 -3 22 2 22 12 0 41 -67 44 -104 2 -16 9
-31 16 -34 8 -2 10 2 6 15 -6 14 -4 16 6 6 15 -14 27 -238 16 -295 -5 -28 -19
-44 -67 -78 -33 -24 -69 -59 -80 -76 -19 -31 -43 -179 -33 -196 12 -19 24 -5
24 27 0 26 3 33 15 29 10 -4 15 0 15 15 0 12 -6 21 -15 21 -20 0 -19 29 0 36
10 4 13 13 10 25 -4 12 -2 18 5 17 7 -2 14 6 16 17 1 11 15 29 29 40 14 11 45
37 68 57 l42 37 0 98 c-1 130 -14 223 -37 252 -10 13 -18 31 -18 39 0 8 -18
32 -39 52 -22 21 -46 57 -54 81 -18 53 -40 65 -31 17z"/>
<path d="M823 2714 c-40 -45 -24 -62 17 -19 15 16 20 29 14 35 -5 5 -18 -1
-31 -16z"/>
<path d="M2528 2481 c4 -68 -19 -171 -38 -171 -4 0 -10 -8 -13 -17 -4 -10 -16
-30 -28 -45 -25 -30 -19 -49 7 -27 68 56 111 212 86 312 -10 40 -17 12 -14
-52z"/>
<path d="M335 2241 c-4 -8 -7 -31 -7 -52 1 -23 -5 -46 -17 -61 l-19 -23 -26
24 c-14 14 -29 21 -33 18 -7 -7 45 -67 58 -67 20 0 51 40 59 76 10 45 0 107
-15 85z"/>
<path d="M181 2145 c-35 -40 -35 -41 -17 -75 12 -21 12 -29 0 -52 -18 -35 -19
-141 -1 -136 6 3 14 17 15 33 2 16 12 40 23 53 20 27 25 67 9 77 -16 10 -12
19 12 30 12 6 23 16 26 23 5 17 -28 15 -49 -4 -30 -27 -29 1 1 35 17 18 30 36
30 42 0 18 -18 8 -49 -26z"/>
<path d="M2282 2065 c0 -79 2 -94 10 -72 6 18 7 52 0 100 l-9 72 -1 -100z"/>
<path d="M2007 1533 c-11 -10 -8 -53 3 -53 6 0 10 14 10 30 0 31 -2 35 -13 23z"/>
<path d="M2919 1445 c-11 -24 -13 -37 -6 -42 13 -8 47 33 47 58 0 31 -24 21
-41 -16z"/>
<path d="M2848 1339 c-28 -23 -38 -39 -38 -60 0 -16 5 -29 10 -29 6 0 10 11
10 24 0 17 10 30 35 45 19 11 35 27 35 36 0 21 -10 18 -52 -16z"/>
<path d="M2195 1081 c-48 -31 -100 -79 -94 -85 3 -4 26 9 50 27 24 19 54 39
67 46 21 11 30 31 15 31 -5 0 -21 -9 -38 -19z"/>
<path d="M2090 1051 c-19 -16 -32 -32 -28 -36 9 -9 78 41 78 56 0 16 -14 10
-50 -20z"/>
<path d="M710 991 c0 -20 17 -37 27 -28 7 8 -7 47 -18 47 -5 0 -9 -9 -9 -19z"/>
<path d="M1903 340 c-60 -36 -67 -73 -22 -125 33 -38 49 -44 49 -20 0 8 -4 15
-9 15 -20 0 -41 33 -41 65 0 28 6 36 32 49 17 9 38 16 47 16 9 -1 0 -9 -19
-18 -23 -11 -36 -25 -38 -42 -3 -19 -1 -22 10 -13 10 9 19 6 37 -13 13 -13 27
-24 32 -24 14 0 11 20 -3 21 -7 0 -2 5 11 10 31 12 42 1 30 -30 -7 -18 -14
-22 -31 -18 -21 6 -48 -7 -48 -23 0 -14 50 -21 70 -10 11 6 20 17 20 25 0 22
18 18 25 -5 3 -10 24 -33 45 -50 56 -45 93 -39 136 20 37 51 41 62 19 54 -9
-4 -15 0 -15 10 0 9 4 16 9 16 5 0 17 3 26 6 11 5 16 2 15 -7 -8 -52 23 -66
61 -28 18 18 24 19 50 8 24 -10 36 -9 67 4 20 8 46 18 56 21 30 10 3 30 -41
31 -21 1 -48 7 -60 13 -29 16 -48 7 -72 -34 -30 -50 -68 -44 -41 6 11 20 -10
50 -34 50 -26 0 -56 -46 -56 -84 l0 -39 -36 6 c-41 7 -69 29 -90 70 -21 39
-91 87 -128 87 -17 0 -45 -9 -63 -20z m171 -91 c-15 -26 79 -86 115 -74 12 3
21 2 21 -2 0 -15 -23 -33 -40 -33 -26 0 -93 53 -110 86 -8 16 -22 40 -32 53
-34 45 -20 58 17 18 19 -21 33 -43 29 -48z m-74 46 c0 -10 -10 -15 -30 -15
-20 0 -30 5 -30 15 0 10 10 15 30 15 20 0 30 -5 30 -15z m440 -36 c0 -16 -20
-20 -26 -5 -3 9 -13 16 -21 16 -8 0 -12 4 -8 10 6 10 55 -8 55 -21z"/>
<path d="M1237 213 c-3 -5 -3 -20 0 -32 4 -18 12 -21 37 -19 21 2 32 9 34 21
3 15 0 18 -18 12 -15 -5 -25 -1 -34 11 -7 9 -16 13 -19 7z"/>
</g>
</svg>
